/* XPM */
static char * cobble_xpm[] = {
"64 64 48 1",
" 	c #8F8F8F",
".	c #7F7F7F",
"+	c #747474",
"@	c #686868",
"#	c #676767",
"$	c #676666",
"%	c #19D1D7",
"&	c #77E8D2",
"*	c #1F9698",
"=	c #8DADB1",
"-	c #1F9598",
";	c #8DAEB2",
">	c #666566",
",	c #737373",
"'	c #7F7E7E",
")	c #666565",
"!	c #D6FFF7",
"~	c #77E8D1",
"{	c #676566",
"]	c #747373",
"^	c #16D0D6",
"/	c #1BD0D6",
"(	c #209698",
"_	c #17D0D7",
":	c #209597",
"<	c #8F8E8E",
"[	c #A3A2A2",
"}	c #8EAEB2",
"|	c #908F8F",
"1	c #A2A2A2",
"2	c #19D0D7",
"3	c #666465",
"4	c #17D0D6",
"5	c #219597",
"6	c #1AD1D7",
"7	c #666666",
"8	c #8F8E8F",
"9	c #7F7F7E",
"0	c #676565",
"a	c #78E8D2",
"b	c #209598",
"c	c #76E8D1",
"d	c #77E7D1",
"e	c #1AD0D6",
"f	c #1CD1D7",
"g	c #1C9597",
"h	c #1AD0D7",
"i	c #8EADB1",
"    .++.+@++....    .++.+@++....    .++.+@++....    .++.+@++....",
"..+.+......@@+.+..+.+......@@+.+..+.+......@@+.+..+.+......@@+.+",
".+@@+++@+++......+@@+++@+++......+@@+++@+++......+@@+++@+++.....",
"..  . ..  ...+++..  . ..  ...+++..  . ..  ...+++..  . ..  ...+++",
"+..+++.+.    +..+..+++.+.    +..+..+++.+.    +..+..+++.+.    +..",
". .......++@+@+ . .......++@+@+ . .......++@+@+ . .......++@+@+ ",
"+..   +  +++....+..   +  +++....+..   +  +++....+..   +  +++....",
"++@@+@++..+++...++@@+@++..+++...++@@+@++..+++...++@@+@++..+++...",
"   . ..   .....+   . ..   .....+   . ..   .....+   . ..   .....+",
".. ...   ..    ... ...   ..    ... ...   ..    ... ...   ..    .",
"@.+.++@@+.+..+++@.+.++@@+.+..+++@.+.++@@+.+..+++@.+.++@@+.+..+++",
".....  .....  . .....  .....  . .....  .....  . .....  .....  . ",
".+++. .++..@@+@+.+++. .++..@@+@+.+++. .++..@@+@+.+++. .++..@@+@+",
"  .++..+++..+++   .++..+++..+++   .++..+++..+++   .++..+++..+++ ",
".++.........    .++.........    .++.........    .++.........    ",
"......++.  ..+........++.  ..+........++.  ..+........++.  ..+..",
"    .++.+@++....    .++.+@++.... .. .++.+#++.       .++.+@++....",
"..+.+......@@+.+..+.+......@@+.+..+.$    ..+$$+...+.+......@@+.+",
".+@@+++@+++......+@@+++@+++......+#$% .$$++$&*...+@@+++@+++.....",
"..  . ..  ...+++..  . ..  ...+++   .= $&-; .= ++..  . ..  ...+++",
"+..+++.+.    +..+..+++.+.    +..+...+>$ ;.,' +..+..+++.+.    +..",
". .......++@+@+ . .......++@+@+ . .,)!~{.,!&]#+ . .......++@+@+ ",
"+..   +  +++....+..   +  +++....++ !~^/(;'_:....+..   +  +++....",
"++@@+@++..+++...++@@+@++..+++... $$<=[=})$|;. 11++@@+@++..+++...",
"   . ..   .....+   . ..   .....+$&2= .+3!&]... +   . ..   .....+",
".. ...   ..    ... ...   ..    ..==.$.]&45*; 11... ...   ..    .",
"@.+.++@@+.+..+++@.+.++@@+.+..+++#.+.6]78==|{$+++@.+.++@@+.+..+++",
".....  .....  . .....  .....  . ....9   8,0ab| ......  .....  . ",
".+++. .++..@@+@+.+++. .++..@@+@+.+ $#. ]c!def* +.+++. .++..@@+@+",
"  .++..+++..+++   .++..+++..+++   =&*$+.[ghi= ..  .++..+++..+++ ",
".++.........    .++.........    .+]=   .. =.+++..++.........    ",
"......++.  ..+........++.  ..+........+ ......  ......++.  ..+..",
"    .++.+@++.... .. .++.+#++.    .. .++.+#++.       .++.+@++....",
"..+.+......@@+.+..+.$    ..+$$+...+.$    ..+$$+...+.+......@@+.+",
".+@@+++@+++......+#$% .$$++$&*...+#$% .$$++$&*...+@@+++@+++.....",
"..  . ..  ...+++   .= $&-; .= ++   .= $&-; .= ++..  . ..  ...+++",
"+..+++.+.    +..+...+>$ ;.,' +..+...+>$ ;.,' +..+..+++.+.    +..",
". .......++@+@+ . .,)!~{.,!&]#+ . .,)!~{.,!&]#+ . .......++@+@+ ",
"+..   +  +++....++ !~^/(;'_:....++ !~^/(;'_:....+..   +  +++....",
"++@@+@++..+++... $$<=[=})$|;. 11 $$<=[=})$|;. 11++@@+@++..+++...",
"   . ..   .....+$&2= .+3!&]... +$&2= .+3!&]... +   . ..   .....+",
".. ...   ..    ..==.$.]&45*; 11..==.$.]&45*; 11... ...   ..    .",
"@.+.++@@+.+..+++#.+.6]78==|{$+++#.+.6]78==|{$+++@.+.++@@+.+..+++",
".....  .....  . ....9   8,0ab| .....9   8,0ab| ......  .....  . ",
".+++. .++..@@+@+.+ $#. ]c!def* +.+ $#. ]c!def* +.+++. .++..@@+@+",
"  .++..+++..+++   =&*$+.[ghi= ..  =&*$+.[ghi= ..  .++..+++..+++ ",
".++.........    .+]=   .. =.+++..+]=   .. =.+++..++.........    ",
"......++.  ..+........+ ......  ......+ ......  ......++.  ..+..",
"    .++.+@++....    .++.+@++....    .++.+@++....    .++.+@++....",
"..+.+......@@+.+..+.+......@@+.+..+.+......@@+.+..+.+......@@+.+",
".+@@+++@+++......+@@+++@+++......+@@+++@+++......+@@+++@+++.....",
"..  . ..  ...+++..  . ..  ...+++..  . ..  ...+++..  . ..  ...+++",
"+..+++.+.    +..+..+++.+.    +..+..+++.+.    +..+..+++.+.    +..",
". .......++@+@+ . .......++@+@+ . .......++@+@+ . .......++@+@+ ",
"+..   +  +++....+..   +  +++....+..   +  +++....+..   +  +++....",
"++@@+@++..+++...++@@+@++..+++...++@@+@++..+++...++@@+@++..+++...",
"   . ..   .....+   . ..   .....+   . ..   .....+   . ..   .....+",
".. ...   ..    ... ...   ..    ... ...   ..    ... ...   ..    .",
"@.+.++@@+.+..+++@.+.++@@+.+..+++@.+.++@@+.+..+++@.+.++@@+.+..+++",
".....  .....  . .....  .....  . .....  .....  . .....  .....  . ",
".+++. .++..@@+@+.+++. .++..@@+@+.+++. .++..@@+@+.+++. .++..@@+@+",
"  .++..+++..+++   .++..+++..+++   .++..+++..+++   .++..+++..+++ ",
".++.........    .++.........    .++.........    .++.........    ",
"......++.  ..+........++.  ..+........++.  ..+........++.  ..+.."};
