/* XPM */
static char * diamonds_xpm[] = {
"64 64 187 2",
"  	c #888888",
". 	c #A8A8A8",
"+ 	c #AEAEAE",
"@ 	c #818181",
"# 	c #767676",
"$ 	c #929292",
"% 	c #7D7D7D",
"& 	c #999999",
"* 	c #C3C3C3",
"= 	c #A1A1A1",
"- 	c #9B9B9B",
"; 	c #A0A0A0",
"> 	c #939393",
", 	c #9D9D9D",
"' 	c #8B8B8B",
") 	c #797979",
"! 	c #A3A3A3",
"~ 	c #C0C0C0",
"{ 	c #7B7B7B",
"] 	c #B3B3B3",
"^ 	c #ABABAB",
"/ 	c #949494",
"( 	c #7E7E7E",
"_ 	c #959595",
": 	c #878787",
"< 	c #A9A9A9",
"[ 	c #909090",
"} 	c #9E9E9E",
"| 	c #858585",
"1 	c #969696",
"2 	c #898989",
"3 	c #A4A4A4",
"4 	c #989898",
"5 	c #8E8E8E",
"6 	c #7C7C7C",
"7 	c #848484",
"8 	c #BFBFBF",
"9 	c #A7A7A7",
"0 	c #707070",
"a 	c #8D8D8D",
"b 	c #868686",
"c 	c #8F8F8F",
"d 	c #7F7F7F",
"e 	c #8C8C8C",
"f 	c #8A8A8A",
"g 	c #979797",
"h 	c #808080",
"i 	c #828282",
"j 	c #A6A6A6",
"k 	c #777777",
"l 	c #B6B6B6",
"m 	c #ADADAD",
"n 	c #9F9F9F",
"o 	c #919191",
"p 	c #838383",
"q 	c #A2A2A2",
"r 	c #ACACAC",
"s 	c #BABABA",
"t 	c #757575",
"u 	c #787878",
"v 	c #9C9C9C",
"w 	c #A5A5A5",
"x 	c #B5B5B5",
"y 	c #AAAAAA",
"z 	c #C5F8F9",
"A 	c #80E9ED",
"B 	c #5BDAE2",
"C 	c #5DDCE4",
"D 	c #838687",
"E 	c #C4F8F9",
"F 	c #5CDBE3",
"G 	c #878A8B",
"H 	c #7A7A7A",
"I 	c #808383",
"J 	c #777C7D",
"K 	c #84898A",
"L 	c #7D8284",
"M 	c #C6FAFB",
"N 	c #7EE7EC",
"O 	c #80E9EE",
"P 	c #C7FAFB",
"Q 	c #7FE8ED",
"R 	c #7FE7EC",
"S 	c #7EE7EB",
"T 	c #C5F9FA",
"U 	c #74797A",
"V 	c #7B8082",
"W 	c #81EAEF",
"X 	c #80E8ED",
"Y 	c #6E7475",
"Z 	c #5DDDE4",
"` 	c #767B7D",
" .	c #757A7C",
"..	c #8E9091",
"+.	c #747777",
"@.	c #666B6C",
"#.	c #737879",
"$.	c #737C7E",
"%.	c #86898A",
"&.	c #9FA2A3",
"*.	c #ACAFB0",
"=.	c #77797A",
"-.	c #9A9D9E",
";.	c #9EA1A2",
">.	c #6D7273",
",.	c #797C7D",
"'.	c #8F9293",
").	c #7D8080",
"!.	c #7E8181",
"~.	c #6F7273",
"{.	c #7A8081",
"].	c #9A9C9D",
"^.	c #5BDBE2",
"/.	c #666E71",
"(.	c #59DAE1",
"_.	c #7DE6EC",
":.	c #C5FAFB",
"<.	c #5BDBE3",
"[.	c #7DE6EB",
"}.	c #616F73",
"|.	c #B7B7B7",
"1.	c #7CE5EB",
"2.	c #5ADAE2",
"3.	c #5ADBE2",
"4.	c #505E62",
"5.	c #848788",
"6.	c #6E7779",
"7.	c #717B7E",
"8.	c #737D80",
"9.	c #5E6C70",
"0.	c #59DBE2",
"a.	c #516063",
"b.	c #717F83",
"c.	c #677274",
"d.	c #6E7374",
"e.	c #6C7172",
"f.	c #7D8688",
"g.	c #747D7F",
"h.	c #5CDCE3",
"i.	c #919697",
"j.	c #70797B",
"k.	c #60696B",
"l.	c #767E80",
"m.	c #C4F7F8",
"n.	c #888F91",
"o.	c #9C9FA0",
"p.	c #909596",
"q.	c #7F8485",
"r.	c #9A9FA1",
"s.	c #787B7C",
"t.	c #81E9EE",
"u.	c #7FE8EC",
"v.	c #717678",
"w.	c #6D7678",
"x.	c #7A7D7E",
"y.	c #7F8282",
"z.	c #828789",
"A.	c #A6A8A9",
"B.	c #C6F9FA",
"C.	c #717475",
"D.	c #858E90",
"E.	c #6F7576",
"F.	c #888B8C",
"G.	c #737B7D",
"H.	c #626D6F",
"I.	c #627073",
"J.	c #656F72",
"K.	c #6F777A",
"L.	c #697072",
"M.	c #858889",
"N.	c #7C8183",
"O.	c #8C8F8F",
"P.	c #747D80",
"Q.	c #757778",
"R.	c #828586",
"S.	c #A1A4A4",
"T.	c #7CE5EA",
"U.	c #8B9496",
"V.	c #7B8688",
"W.	c #6B797C",
"X.	c #58DAE1",
"Y.	c #6B797D",
"Z.	c #717C7E",
"`.	c #707577",
" +	c #757E80",
".+	c #828B8D",
"++	c #737B7C",
"  . + @ . # $ % & @ * = . - ;   . + @ . # $ % & @ * = > . - ; . + @ . # $ % & @ * = > . - ;   . + . # $ % & @ * = > . - ;   . + ",
", ' ) ! = ~ { ] ^ / > ( _ : < , ' ) ! = ~ { ] ^ / > ( _ _ : < ' ) ! = ~ { ] ^ / > ( _ _ : < , ' ) = ~ { ] ^ / > ( _ _ : < , ' ) ",
"[   } | 1   2 3 4 / > 5 6 < 7 [   } | 1   2 3 4 / > 5 8 6 < 7   } | 1   2 3 4 / > 5 8 6 < 7 [   } 1   2 3 4 / > 5 8 6 < 7 [   } ",
"9 0 a / * > b b c d e } f : 2 9 0 a / * > b b c d e } 1 f : 2 0 a / * > b b c d e } 1 f : 2 9 0 a * > b b c d e } 1 f : 2 9 0 a ",
"e : ' _ e ; g & h & i d j > * e : ' _ e ; g & h & i d < j > * : ' _ e ; g & h & i d < j > * e : ' e ; g & h & i d < j > * e : ' ",
"k h l ! a % 7 2   [ [ / . m : k h l ! a % 7 2   [ [ / n . m : h l ! a % 7 2   [ [ / n . m : k h l a % 7 2   [ [ / n . m : k h l ",
"' 9 % # | f g o & % $ d a g c ' 9 % # | f g o & % $ d p a g c 9 % # | f g o & % $ d p a g c ' 9 % | f g o & % $ d p a g c ' 9 % ",
"(   a q p m p r +   r s h 9 ^ (   a q p m p r +   r s t h 9 ^   a q p m p r +   r s t h 9 ^ (   a p m p r +   r s t h 9 ^ (   a ",
"  5 / & 4 u j @ 1 _ - :   p u   5 / & 4 u j @ 1 _ - : _   p u 5 / & 4 u j @ 1 _ - : _   p u   5 / 4 u j @ 1 _ - : _   p u   5 / ",
"9 g c ( v w [ $ p f d 7 x r o 9 g c ( v w [ $ p f d 7 : x r o g c ( v w [ $ p f d 7 : x r o 9 g c v w [ $ p f d 7 : x r o 9 g c ",
"; d < c : , ' [ 6 3 7 g : @ c ; d < c : , ' [ 6 3 7 g m : @ c d < c : , ' [ 6 3 7 g m : @ c ; d < : , ' [ 6 3 7 g m : @ c ; d < ",
"> } ( 9 - l y r @ m v ] i $ | > } ( 9 - l y r @ m v ] y i $ | } ( 9 - l y r @ m v ] y i $ | > } ( - l y r @ m v ] y i $ | > } ( ",
"  g c - } g w i l 5 z ~ 9 p c   g c - } g A B C D > ~ ) 9 p c g c - } g w i l 5 > ~ ) 9 p c   g c } g w i l 5 > ~ ) 9 p c   g c ",
"d % f 7 m b ! g 7 $ E g e { ] d % f 7 m b A F B G 2 g $ e { ] % f 7 m b ! g 7 $ 2 g $ e { ] d % f m b ! g 7 $ 2 g $ e { ] d % f ",
"w ) g s g @ f & o | H I I % n w ) g s g @ J K L | H f o f % n ) g s g @ f & o | H f o f % n w ) g g @ f & o | H f o f % n w ) g ",
"  . + @ . # $ % & @ * = . - M N O O @ . # $ % & @ * = > . - ; . + @ . # $ % & @ * = > . - ;   . + . # $ % & @ * = > . - ;   . + ",
", ' ) ! = ~ { ] ^ / > ( _ : P Q R S ! = ~ { ] ^ / > ( _ _ : < ' ) ! = ~ { ] ^ / > ( _ _ : < , ' ) = ~ { ] ^ / > ( _ _ : < , ' ) ",
"[   } | 1   2 3 4 / > 5 6 < 7 Q N } | 1   2 3 4 / > 5 8 6 < 7   } | 1   2 3 4 / > 5 8 6 < 7 [   } 1   2 3 4 / > 5 8 6 < 7 [   } ",
"9 0 a / * > b b c d e } f : 2 9 0 a / * T N U V d e } 1 f : 2 0 a / * > b b c d e } 1 f : 2 9 0 a * > b b c d e } 1 f : 2 9 0 a ",
"e : ' _ e ; g & h & i d j F W e : ' _ e X T K Y & i d < j > * : ' _ e ; g & h & i d < j > * e : ' e ; g & h & i d < j > * e : ' ",
"k h l ! a % 7 2   [ [ / . Z N k h l ! a N E `  .[ [ / n . m : h l ! a % 7 2   [ [ / n . m : k h l a % 7 2   [ [ / n . m : k h l ",
"' 9 % # | f g o ..+.z N R Q F R X % @.#.J $.%...% $ d p a g c 9 % # | f g o & % $ d p a g c ' 9 % | f g o & % $ d p a g c ' 9 % ",
"(   a q p m p r +   &.*.=.-.;.>. .a q p m ,.r +   r s t h 9 ^   a q p m p r +   r s t h 9 ^ (   a p m p r +   r s t h 9 ^ (   a ",
"  5 / & 4 u j @ 1 _ '.).!.,.~. .{./ & 4 u ].@ 1 _ - : _   p u 5 / & 4 u j @ 1 _ - : _   p u   5 / 4 u j @ 1 _ - : _   p u   5 / ",
"9 g c ( v w [ $ z T N 7 x r o 9 g c ( v w [ $ p f d 7 : x r o g c ( v w [ $ p f d 7 : x r o 9 g c v w [ $ p f d 7 : x r o 9 g c ",
"; d < c : , ' [ N A ^.g : @ c ; d < c : , ' F B A /.g m : @ c d < c : , ' [ 6 3 7 g m : @ c ; d < : , ' [ 6 3 7 g m : @ c ; d < ",
"> } ( 9 - l y r @ m v ] i T | > } (._._.:.Z <.(.[.}.] y i $ | } ( 9 - l y r @ m v ] y i $ | > } ( - l y r @ m v ] y i $ | > } ( ",
"] c @ g i |.a e 4 y h : $ P 5 ] c (._.1.:.<.2.3.[.4.: o $ < 5 c @ g i |.a e 4 y h : o $ < 5 ] c @ i |.a e 4 y h : o $ < 5 ] c @ ",
"  g c - } g w i l 5 > ~ 9 p 5.  g 6.7.8.9.0.a.b.c.> ~ ) 9 p c g c - } g w i l 5 > ~ ) 9 p c   g c } g w i l 5 > ~ ) 9 p c   g c ",
"d % f 7 m b ! g 7 $ 2 Q R B Q d.e.f 7 m b f.g./.$ 2 g $ e { ] % f 7 m b ! g 7 $ 2 g $ e { ] d % f m b ! g 7 $ 2 g $ e { ] d % f ",
"  . + @ . # $ % & @ * X O h.N  .i.+ @ . # j.k.l.@ * = > . - ; . + @ . # $ % & @ * = > . - ;   . + . # $ % & @ * = > . - ;   . + ",
", ' ) ! = ~ { ] ^ / > ( _ m.n., ' ) ! = ~ { ] ^ / > ( _ _ : < ' ) ! = ~ { ] ^ / > ( _ _ : < , ' ) = ~ { ] ^ / > ( _ _ : < , ' ) ",
"[   } | 1   2 3 4 / > 5 6 o.7 [   } | 1   2 3 4 / > 5 8 6 < 7   } | 1   2 3 4 / > 5 8 6 < 7 [   } 1   2 3 4 / > 5 8 6 < 7 [   } ",
"9 0 a / * > b b c d e } f : 2 9 0 a / * > b b c d e } 1 f : 2 0 a / * > b b c d e } 1 f : 2 9 0 a * > b b c d e } 1 f : 2 9 0 a ",
"e : ' _ e ; g & h & i d j > * e : ' _ e ; g & h & i d < j > * : ' _ e ; g & h & i d < j > * e : ' e ; g & h & i d < j > * e : ' ",
"k h l ! a % 7 2   [ [ / . m : k h l ! a % 7 2   [ [ / n . m : h l ! a % 7 2   [ [ / n . m : k h l a % 7 2   [ [ / n . m : k h l ",
"' 9 % # | f g o & % $ d a g c ' 9 % # | f g o & % $ d p a g c 9 % # | f g o & % $ d p a g c ' 9 % | f g o & % $ d p a g c ' 9 % ",
"(   a q p m p r +   r s h 9 ^ (   a q p m p r +   r s t h 9 ^   a q p m p r +   r s t h 9 ^ (   a p m p r +   r s t h 9 ^ (   a ",
"  5 / & 4 u j @ 1 _ - :   p S B D / & 4 u j @ 1 _ - : _   p u 5 / & 4 u j @ 1 _ - : _   p u   5 / 4 u j @ 1 _ - : _   p u   5 / ",
"9 g c ( v w [ $ ,.f d 7 x r L p.g c ( v w [ $ p f d 7 : x r o g c ( v w [ $ p f d 7 : x r o 9 g c v w [ $ p f d 7 : x r o 9 g c ",
"; d < c : , ' [ 6 3 z Q N @ c ; d < c : , ' [ 6 3 7 g m : @ c d < c : , ' [ 6 3 7 g m : @ c ; d < : , ' [ 6 3 7 g m : @ c ; d < ",
"> } ( 9 - l y r @ m v ] i $ N q.} ( 9 - l y r @ m v ] y i $ | } ( 9 - l y r @ m v ] y i $ | > } ( - l y r @ m v ] y i $ | > } ( ",
"] c @ g i |.a e 4 Z N : $ < T r.c @ g i |.a e 4 y h : o $ < 5 c @ g i |.a e 4 y h : o $ < 5 ] c @ i |.a e 4 y h : o $ < 5 ] c @ ",
"  g c - } g w s.t.u.F t.9 v.w.!.g c - } g w i l 5 > ~ ) 9 p c g c - } g w i l 5 > ~ ) 9 p c   g c } g w i l 5 > ~ ) 9 p c   g c ",
"d % f 7 m b ! g x.G y.z.e { A.d % f 7 m b ! g 7 $ 2 g $ e { ] % f 7 m b ! g 7 $ 2 g $ e { ] d % f m b ! g 7 $ 2 g $ e { ] d % f ",
"w ) g s g @ f B.o | H f f % n w ) g s g @ f & o | H f o f % n ) g s g @ f & o | H f o f % T w ) g g @ f & Q B C.f o f % n w ) g ",
"  . + @ . # $ N & @ * = . - ; <.O D.@ . # $ % & @ * = > . - ; . + @ . # $ % & @ * = > . - ; !.. + . # $ % K E.* = > . - ;   . + ",
", ' ) ! = ~ { ] ^ / F.( G.H.0.I.J.) ! = ~ { ] ^ / > ( _ _ : < ' ) ! = ~ { ] ^ / > ( _ _ : < , ' E X W { ] ^ / > ( _ _ : < , ' ) ",
"[   } | 1   2 3 Q F S {.6 < /.K.  } | 1   2 3 4 / > 5 8 6 < 7   } | 1   2 3 4 / > 5 8 6 < 7 [   } Q   2 3 4 / > 5 8 6 < 7 [   } ",
"e : ' _ e ; g & h E L.d j > * e : ' _ e ; g & h & i d < j > * : ' _ e ; g & h & i d < j > * e : ' e ; g B.N K i d < j > * e : ' ",
"k h l ! a % 7 2   M.[ / . m : k h l ! a % 7 2   [ [ / n . m : h l ! a % 7 2   [ [ / n . m : k ^.t.a % 7 R z N.[ / n . m : k h l ",
"' 9 % # | f g o & % $ d a g c ' 9 % # | f g o & % $ d p a g c 9 % # | f g o & % $ d p a O.z R O B S f z.L P.+.$ d p a g c ' 9 % ",
"(   a q p m p r +   r s h 9 ^ (   a q p m p r +   r s t h 9 ^   a q p m p r +   r s t h 9 ;.Q.!.R.v.m p r S.  r s t h 9 ^ (   a ",
"  5 / & 4 u j @ 1 _ - :   p u   5 / & 4 u j @ 1 _ - : _   p u 5 / & 4 u j @ 1 _ - : _   z S   5 / 4 u j @ 1 _ - : _   p u   5 / ",
"9 g c ( v w [ $ p f d 7 x r o 9 g c ( v w [ $ p f d 7 : x r o g c ( v w [ $ p f d 7 : x O F 9 g c v w [ $ p <.N /.: x r o 9 g c ",
"; d < c : , ' [ 6 3 7 g : @ c ; d < c : , ' [ 6 3 7 g m : @ c d < c : , ' [ 6 3 7 g m : @ c ; z < : 3.1.E B <.T.9.m : @ c ; d < ",
"> } ( 9 - l y r @ m v ] i $ | > } ( 9 - l y r @ m v ] y i $ | } ( 9 - l y r @ m v ] y i $ | > } Q.- U.V.W.X.Y.Z.] y i $ | > } ( ",
"] c @ g i |.a e 4 y h : $ < 5 ] c @ g i |.a e 4 y h : o $ < 5 c @ g i |.a e 4 y h : o $ < 5 O F [.`.|.a e  +.+h : o $ < 5 ] c @ ",
"  g c - } g w i l 5 > ~ 9 p c   g c - } g w i l 5 > ~ ) 9 p c g c - } g w i l 5 > ~ ) 9 p c   E ++} g w i l 5 > ~ ) 9 p c   g c ",
"d % f 7 m b ! g 7 $ 2 g e { ] d % f 7 m b ! g 7 $ 2 g $ e { ] % f 7 m b ! g 7 $ 2 g $ e { ] d +.f m b ! g 7 $ 2 g $ e { ] d % f ",
"w ) g s g @ f & o | H f f % n w ) g s g @ f & o | H f o f % n ) g s g @ f & o | H f o f % n w ) g g @ f & o | H f o f % n w ) g ",
"  . + @ . # $ % & @ * = . - ;   . + @ . # $ % & @ * = > . - ; . + @ . # $ % & @ * = > . - ;   . + . # $ % & @ * = > . - ;   . + ",
", ' ) ! = ~ { ] ^ / > ( _ : < , ' ) ! = ~ { ] ^ / > ( _ _ : < ' ) ! = ~ { ] ^ / > ( _ _ : < , ' ) = ~ { ] ^ / > ( _ _ : < , ' ) ",
"[   } | 1   2 3 4 / > 5 6 < 7 [   } | 1   2 3 4 / > 5 8 6 < 7   } | 1   2 3 4 / > 5 8 6 < 7 [   } 1   2 3 4 / > 5 8 6 < 7 [   } "};
