/* XPM */
static char * door_xpm[] = {
"64 64 93 2",
"  	c #888888",
". 	c #A8A8A8",
"+ 	c #AEAEAE",
"@ 	c #818181",
"# 	c #767676",
"$ 	c #929292",
"% 	c #7D7D7D",
"& 	c #999999",
"* 	c #C3C3C3",
"= 	c #A1A1A1",
"- 	c #9B9B9B",
"; 	c #A0A0A0",
"> 	c #939393",
", 	c #9D9D9D",
"' 	c #8B8B8B",
") 	c #797979",
"! 	c #A3A3A3",
"~ 	c #C0C0C0",
"{ 	c #7B7B7B",
"] 	c #B3B3B3",
"^ 	c #ABABAB",
"/ 	c #949494",
"( 	c #7E7E7E",
"_ 	c #959595",
": 	c #878787",
"< 	c #A9A9A9",
"[ 	c #909090",
"} 	c #9E9E9E",
"| 	c #858585",
"1 	c #969696",
"2 	c #898989",
"3 	c #A4A4A4",
"4 	c #989898",
"5 	c #8E8E8E",
"6 	c #7C7C7C",
"7 	c #848484",
"8 	c #BFBFBF",
"9 	c #A7A7A7",
"0 	c #707070",
"a 	c #8D8D8D",
"b 	c #868686",
"c 	c #8F8F8F",
"d 	c #7F7F7F",
"e 	c #8C8C8C",
"f 	c #8A8A8A",
"g 	c #979797",
"h 	c #808080",
"i 	c #828282",
"j 	c #A6A6A6",
"k 	c #777777",
"l 	c #B6B6B6",
"m 	c #ADADAD",
"n 	c #9F9F9F",
"o 	c #919191",
"p 	c #838383",
"q 	c #A2A2A2",
"r 	c #ACACAC",
"s 	c #BABABA",
"t 	c #757575",
"u 	c #787878",
"v 	c #9C9C9C",
"w 	c #A5A5A5",
"x 	c #B5B5B5",
"y 	c #656463",
"z 	c #676666",
"A 	c #656464",
"B 	c #646362",
"C 	c #686767",
"D 	c #C2C2C2",
"E 	c #CFCFCF",
"F 	c #AAAAAA",
"G 	c #C4C4C4",
"H 	c #7A7A7A",
"I 	c #5E5D5D",
"J 	c #606060",
"K 	c #4D4D4D",
"L 	c #747474",
"M 	c #5A5959",
"N 	c #2F2F2F",
"O 	c #717171",
"P 	c #B7B7B7",
"Q 	c #626262",
"R 	c #2A2A2A",
"S 	c #555555",
"T 	c #1E1E1E",
"U 	c #0A0A0A",
"V 	c #B9B9B9",
"W 	c #6B6B6B",
"X 	c #1C1C1C",
"Y 	c #121212",
"Z 	c #191919",
"` 	c #232323",
" .	c #BEBEBE",
"  . + @ . # $ % & @ * = . - ;   . + @ . # $ % & @ * = > . - ; . + @ . # $ % & @ * = > . - ;   . + . # $ % & @ * = > . - ;   . + ",
", ' ) ! = ~ { ] ^ / > ( _ : < , ' ) ! = ~ { ] ^ / > ( _ _ : < ' ) ! = ~ { ] ^ / > ( _ _ : < , ' ) = ~ { ] ^ / > ( _ _ : < , ' ) ",
"[   } | 1   2 3 4 / > 5 6 < 7 [   } | 1   2 3 4 / > 5 8 6 < 7   } | 1   2 3 4 / > 5 8 6 < 7 [   } 1   2 3 4 / > 5 8 6 < 7 [   } ",
"9 0 a / * > b b c d e } f : 2 9 0 a / * > b b c d e } 1 f : 2 0 a / * > b b c d e } 1 f : 2 9 0 a * > b b c d e } 1 f : 2 9 0 a ",
"e : ' _ e ; g & h & i d j > * e : ' _ e ; g & h & i d < j > * : ' _ e ; g & h & i d < j > * e : ' e ; g & h & i d < j > * e : ' ",
"k h l ! a % 7 2   [ [ / . m : k h l ! a % 7 2   [ [ / n . m : h l ! a % 7 2   [ [ / n . m : k h l a % 7 2   [ [ / n . m : k h l ",
"' 9 % # | f g o & % $ d a g c ' 9 % # | f g o & % $ d p a g c 9 % # | f g o & % $ d p a g c ' 9 % | f g o & % $ d p a g c ' 9 % ",
"(   a q p m p r +   r s h 9 ^ (   a q p m p r +   r s t h 9 ^   a q p m p r +   r s t h 9 ^ (   a p m p r +   r s t h 9 ^ (   a ",
"  5 / & 4 u j @ 1 _ - :   p u   5 / & 4 u j @ 1 _ - : _   p u 5 / & 4 u j @ 1 _ - : _   p u   5 / 4 u j @ 1 _ - : _   p u   5 / ",
"9 g c ( v w [ $ p f d 7 x r o 9 y z A A A A A A A A A A A A A A A A A A A A A A A A A A A A B g c v w [ $ p f d 7 : x r o 9 g c ",
"; d < c : , ' [ 6 3 7 g : @ c ; C D E E E E E E E E E E E E E E E E E E E E E E E E E E E 8 A d < : , ' [ 6 3 7 g m : @ c ; d < ",
"> } ( 9 - l F r @ m v ] i $ | > C E G G G G G G G G G G G G G G G G G G G G G G G G G G G G A } ( - l F r @ m v ] F i $ | > } ( ",
"  g c - } g w i l 5 > ~ 9 p c   z G + + + + + + + + + + + + + + + + + + + + + + + + + + G E C g c } g w i l 5 > ~ ) 9 p c   g c ",
"d % f 7 m b ! g 7 $ 2 g e { ] d z G + + + + + + + + + + + + + + + + + + + + + + + + + + G G z % f m b ! g 7 $ 2 g $ e { ] d % f ",
"w ) g s g @ f & o | H f f % n w I J + + + + & K K K K K K K K L K K K K K K K K a + + + G J I ) g g @ f & o | H f o f % n w ) g ",
"  . + @ . # $ % & @ * = . - ;   M N + + + + 2 & @ * = > . - ; L + @ . # $ % & @ O + + + G N M . + . # $ % & @ * = > . - ;   . + ",
", ' ) ! = ~ { ] ^ / > ( _ : < , M N + + + + 2 ^ / > ( _ _ : < L ) ! = ~ { ] ^ / O + + + G N M ' ) = ~ { ] ^ / > ( _ _ : < , ' ) ",
"[   } | 1   2 3 4 / > 5 6 < 7 [ M N + + + + 2 4 / > 5 8 6 < 7 L } | 1   2 3 4 / O + + + G N M   } 1   2 3 4 / > 5 8 6 < 7 [   } ",
"9 0 a / * > b b c d e } f : 2 9 I J + + + + 2 c d e } 1 f : 2 L a / * > b b c d O + + + G J I 0 a * > b b c d e } 1 f : 2 9 0 a ",
"e : ' _ e ; g & h & i d j > * e z G + + + + 2 h & i d < j > * : ' _ e ; g & h & O + + + G G z : ' e ; g & h & i d < j > * e : ' ",
"k h l ! a % 7 2   [ [ / . m : k z G + + + + 2   [ [ / n . m : + l ! a % 7 2   [ O + + + G G z h l a % 7 2   [ [ / n . m : k h l ",
"' 9 % # | f g o & % $ d a g c ' z G + + + + + + : : : : : : + + + : : : : : : + + + + + G G z 9 % | f g o & % $ d p a g c ' 9 % ",
"(   a q p m p r +   r s h 9 ^ ( z G + + + + 2 +   r s t h 9 ^ : a q p m p r +   O + + + G G z   a p m p r +   r s t h 9 ^ (   a ",
"  5 / & 4 u j @ 1 _ - :   p u   z G + + + + 2 1 _ - : _   p u L / & 4 u j @ 1 _ O + + + G G z 5 / 4 u j @ 1 _ - : _   p u   5 / ",
"9 g c ( v w [ $ p f d 7 x r o 9 z G + + + + 2 p f d 7 : x r o L c ( v w [ $ p f O + + + G G z g c v w [ $ p f d 7 : x r o 9 g c ",
"; d < c : , ' [ 6 3 7 g : @ c ; z G + + + + 2 6 3 7 g m : @ c L < c : , ' [ 6 3 O + + + G G z d < : , ' [ 6 3 7 g m : @ c ; d < ",
"> } ( 9 - l F r @ m v ] i $ | > z G + + + + 2 @ m v ] F i $ | L ( 9 - l F r @ m O + + + G G z } ( - l F r @ m v ] F i $ | > } ( ",
"] c @ g i P a e 4 F h : $ < 5 ] z G + + + + 2 4 F h : o $ < 5 L @ g i P a e 4 F O + + + G G z c @ i P a e 4 F h : o $ < 5 ] c @ ",
"  g c - } g w i l 5 > ~ 9 p c   z G + + + + } Q Q Q Q Q Q Q Q + Q Q Q Q Q Q Q Q > + + + G G z g c } g w i l 5 > ~ ) 9 p c   g c ",
"d % f 7 m b ! g 7 $ 2 g e { ] d z G + + + + + + + + + + + + + + + + + + + + + + + + + + G G z % f m b ! g 7 $ 2 g $ e { ] d % f ",
"  . + @ . # $ % & @ * = . - ;   z G + + + + + + + + + + + + + + + + + + + + + + + + + + G G z . + . # $ % & @ * = > . - ;   . + ",
", ' ) ! = ~ { ] ^ / > ( _ : < , z G + + + + + + + + + + + + + + + + + + + + + + + + + + G G z ' ) = ~ { ] ^ / > ( _ _ : < , ' ) ",
"[   } | 1   2 3 4 / > 5 6 < 7 [ z G + + + + + + + + + + + + + + + + + + + + + R S + + + G G z   } 1   2 3 4 / > 5 8 6 < 7 [   } ",
"9 0 a / * > b b c d e } f : 2 9 z G + + + + + $ $ $ $ $ $ $ $ $ $ $ $ $ $ $ $ T U S S S V G z 0 a * > b b c d e } 1 f : 2 9 0 a ",
"e : ' _ e ; g & h & i d j > * e I J + + + + W W W W W W W W L : L L L L L L L X Y + + + V J I : ' e ; g & h & i d < j > * e : ' ",
"k h l ! a % 7 2   [ [ / . m : k M N ] G G + W L L L L L L L L : L L L L L L L Z ` + E E  .N M h l a % 7 2   [ [ / n . m : k h l ",
"' 9 % # | f g o & % $ d a g c ' M N l G G + W L L L L L L L L : L L L L L L L W $ + E G  .N M 9 % | f g o & % $ d p a g c ' 9 % ",
"(   a q p m p r +   r s h 9 ^ ( M N l G G + W L L L L L L L L : L L L L L L L W $ + E G  .N M   a p m p r +   r s t h 9 ^ (   a ",
"  5 / & 4 u j @ 1 _ - :   p u   I J l G G + W L L L L L L L L : L L L L L L L W $ + E G  .J I 5 / 4 u j @ 1 _ - : _   p u   5 / ",
"9 g c ( v w [ $ p f d 7 x r o 9 z G l G G + W L L L L L L L L : L L L L L L L W $ + E G  .G z g c v w [ $ p f d 7 : x r o 9 g c ",
"; d < c : , ' [ 6 3 7 g : @ c ; z G l G G + W L L L L L L L L : L L L L L L L W $ + E G  .G z d < : , ' [ 6 3 7 g m : @ c ; d < ",
"> } ( 9 - l F r @ m v ] i $ | > z G l G G + L L L L L L L L L : L W W W W W W W $ + E G  .G z } ( - l F r @ m v ] F i $ | > } ( ",
"] c @ g i P a e 4 F h : $ < 5 ] z G l G G + : : : : : : : : : : : : : : : : : : $ + E G  .G z c @ i P a e 4 F h : o $ < 5 ] c @ ",
"  g c - } g w i l 5 > ~ 9 p c   z G l G G + L L L L L L L L L : L L L L L L L L $ + E G  .G z g c } g w i l 5 > ~ ) 9 p c   g c ",
"d % f 7 m b ! g 7 $ 2 g e { ] d z G l G G + L L L L L L L L L : W L L L L L L L $ + E G  .G z % f m b ! g 7 $ 2 g $ e { ] d % f ",
"w ) g s g @ f & o | H f f % n w z G l G G + L L L L L L L L L : W L L L L L L L $ + E G  .G z ) g g @ f & o | H f o f % n w ) g ",
"  . + @ . # $ % & @ * = . - ;   z G l G G + L L L L L L L L L : W L L L L L L L $ + E G  .G z . + . # $ % & @ * = > . - ;   . + ",
", ' ) ! = ~ { ] ^ / > ( _ : < , z G l G G + L L L L L L L L L : W L L L L L L L $ + E G  .G z ' ) = ~ { ] ^ / > ( _ _ : < , ' ) ",
"[   } | 1   2 3 4 / > 5 6 < 7 [ z G l G G + L L L L L L L L L : W L L L L L L L $ + E G  .G z   } 1   2 3 4 / > 5 8 6 < 7 [   } ",
"e : ' _ e ; g & h & i d j > * e z G l G G + L L L L L L L L L : W L L L L L L L $ + E G  .G z : ' e ; g & h & i d < j > * e : ' ",
"k h l ! a % 7 2   [ [ / . m : k z G l G G + L W W W W W W W L : W W W W W W W L $ + E G  .G z h l a % 7 2   [ [ / n . m : k h l ",
"' 9 % # | f g o & % $ d a g c ' z G l G G + : : : : : : : : : : : : : : : : : : $ + E G  .G z 9 % | f g o & % $ d p a g c ' 9 % ",
"(   a q p m p r +   r s h 9 ^ ( z G l G G + L L L L L L L L L : L L L L L L L L $ + E G  .G z   a p m p r +   r s t h 9 ^ (   a ",
"  5 / & 4 u j @ 1 _ - :   p u   z G l G G + L L L L L L L L W : W L L L L L L W $ + E G  .G z 5 / 4 u j @ 1 _ - : _   p u   5 / ",
"9 g c ( v w [ $ p f d 7 x r o 9 z G l G G + L L L L L L L L W : W L L L L L L W $ + E G  .G z g c v w [ $ p f d 7 : x r o 9 g c ",
"; d < c : , ' [ 6 3 7 g : @ c ; z G l G G + L L L L L L L L W : W L L L L L L W $ + E G  .G z d < : , ' [ 6 3 7 g m : @ c ; d < ",
"> } ( 9 - l F r @ m v ] i $ | > I J l G G + L L L L L L L L W : W L L L L L L W $ + E G  .J I } ( - l F r @ m v ] F i $ | > } ( ",
"] c @ g i P a e 4 F h : $ < 5 ] M N l G G + L L L L L L L L W : W L L L L L L W $ + E G  .N M c @ i P a e 4 F h : o $ < 5 ] c @ ",
"  g c - } g w i l 5 > ~ 9 p c   M N l G G + L L L L L L L L W : W L L L L L L W $ + E G  .N M g c } g w i l 5 > ~ ) 9 p c   g c ",
"d % f 7 m b ! g 7 $ 2 g e { ] d M N l G G + L W W W W W W W W : W W W W W W W W $ + E G  .N M % f m b ! g 7 $ 2 g $ e { ] d % f ",
"w ) g s g @ f & o | H f f % n w I J l G G + : : : : : : : : : : : : : : : : : : $ + E G  .J I ) g g @ f & o | H f o f % n w ) g ",
"  . + @ . # $ % & @ * = . - ;   z G l G G + + W W W W W W W W W W W W W W W W W + + E G  .G z . + . # $ % & @ * = > . - ;   . + ",
", ' ) ! = ~ { ] ^ / > ( _ : < , z G l G G + + + + + + + + + + + + + + + + + + + + + E G  .G z ' ) = ~ { ] ^ / > ( _ _ : < , ' ) ",
"[   } | 1   2 3 4 / > 5 6 < 7 [ z G l G G + + + + + + + + + + + + + + + + + + + + + E G  .G z   } 1   2 3 4 / > 5 8 6 < 7 [   } "};
