/* XPM */
static char * door1_xpm[] = {
"64 64 94 2",
"  	c None",
". 	c #888888",
"+ 	c #A8A8A8",
"@ 	c #AEAEAE",
"# 	c #818181",
"$ 	c #767676",
"% 	c #929292",
"& 	c #7D7D7D",
"* 	c #999999",
"= 	c #C3C3C3",
"- 	c #A1A1A1",
"; 	c #9B9B9B",
"> 	c #A0A0A0",
", 	c #939393",
"' 	c #9D9D9D",
") 	c #8B8B8B",
"! 	c #797979",
"~ 	c #A3A3A3",
"{ 	c #C0C0C0",
"] 	c #7B7B7B",
"^ 	c #B3B3B3",
"/ 	c #ABABAB",
"( 	c #949494",
"_ 	c #7E7E7E",
": 	c #959595",
"< 	c #878787",
"[ 	c #A9A9A9",
"} 	c #909090",
"| 	c #9E9E9E",
"1 	c #858585",
"2 	c #969696",
"3 	c #898989",
"4 	c #A4A4A4",
"5 	c #989898",
"6 	c #8E8E8E",
"7 	c #7C7C7C",
"8 	c #848484",
"9 	c #BFBFBF",
"0 	c #A7A7A7",
"a 	c #707070",
"b 	c #8D8D8D",
"c 	c #868686",
"d 	c #8F8F8F",
"e 	c #7F7F7F",
"f 	c #8C8C8C",
"g 	c #8A8A8A",
"h 	c #979797",
"i 	c #808080",
"j 	c #828282",
"k 	c #A6A6A6",
"l 	c #777777",
"m 	c #B6B6B6",
"n 	c #ADADAD",
"o 	c #9F9F9F",
"p 	c #919191",
"q 	c #838383",
"r 	c #A2A2A2",
"s 	c #ACACAC",
"t 	c #BABABA",
"u 	c #757575",
"v 	c #787878",
"w 	c #9C9C9C",
"x 	c #A5A5A5",
"y 	c #B5B5B5",
"z 	c #656463",
"A 	c #676666",
"B 	c #656464",
"C 	c #646362",
"D 	c #686767",
"E 	c #C2C2C2",
"F 	c #CFCFCF",
"G 	c #AAAAAA",
"H 	c #C4C4C4",
"I 	c #7A7A7A",
"J 	c #5E5D5D",
"K 	c #606060",
"L 	c #4D4D4D",
"M 	c #747474",
"N 	c #5A5959",
"O 	c #2F2F2F",
"P 	c #717171",
"Q 	c #B7B7B7",
"R 	c #626262",
"S 	c #2A2A2A",
"T 	c #555555",
"U 	c #1E1E1E",
"V 	c #0A0A0A",
"W 	c #B9B9B9",
"X 	c #6B6B6B",
"Y 	c #1C1C1C",
"Z 	c #121212",
"` 	c #191919",
" .	c #232323",
"..	c #BEBEBE",
". + @ # + $ % & * # = - + ; > . + @ # + $ % & * # = - , + ; > + @ # + $ % & * # = - , + ; > . + @ + $ % & * # = - , + ; > . + @ ",
"' ) ! ~ - { ] ^ / ( , _ : < [ ' ) ! ~ - { ] ^ / ( , _ : : < [ ) ! ~ - { ] ^ / ( , _ : : < [ ' ) ! - { ] ^ / ( , _ : : < [ ' ) ! ",
"} . | 1 2 . 3 4 5 ( , 6 7 [ 8 } . | 1 2 . 3 4 5 ( , 6 9 7 [ 8 . | 1 2 . 3 4 5 ( , 6 9 7 [ 8 } . | 2 . 3 4 5 ( , 6 9 7 [ 8 } . | ",
"0 a b ( = , c c d e f | g < 3 0 a b ( = , c c d e f | 2 g < 3 a b ( = , c c d e f | 2 g < 3 0 a b = , c c d e f | 2 g < 3 0 a b ",
"f < ) : f > h * i * j e k , = f < ) : f > h * i * j e [ k , = < ) : f > h * i * j e [ k , = f < ) f > h * i * j e [ k , = f < ) ",
"l i m ~ b & 8 3 . } } ( + n < l i m ~ b & 8 3 . } } ( o + n < i m ~ b & 8 3 . } } ( o + n < l i m b & 8 3 . } } ( o + n < l i m ",
") 0 & $ 1 g h p * & % e b h d ) 0 & $ 1 g h p * & % e q b h d 0 & $ 1 g h p * & % e q b h d ) 0 & 1 g h p * & % e q b h d ) 0 & ",
"_ . b r q n q s @ . s t i 0 / _ . b r q n q s @ . s t u i 0 / . b r q n q s @ . s t u i 0 / _ . b q n q s @ . s t u i 0 / _ . b ",
". 6 ( * 5 v k # 2 : ; < . q v . 6 ( * 5 v k # 2 : ; < : . q v 6 ( * 5 v k # 2 : ; < : . q v . 6 ( 5 v k # 2 : ; < : . q v . 6 ( ",
"0 h d _ w x } % q g e 8 y s p 0 z A B B B B B B B B B B B B B B B B B B B B B B B B B B B B C h d w x } % q g e 8 < y s p 0 h d ",
"> e [ d < ' ) } 7 4 8 h < # d > D E F F F F F F F F F F F F F F F F F F F F F F F F F F F 9 B e [ < ' ) } 7 4 8 h n < # d > e [ ",
", | _ 0 ; m G s # n w ^ j % 1 , D F H H H H H H H H H H H H H H H H H H H H H H H H H H H H B | _ ; m G s # n w ^ G j % 1 , | _ ",
". h d ; | h x j m 6 , { 0 q d . A H @ @ @ @ @ @ @ @ @ @ @ @ @ @ @ @ @ @ @ @ @ @ @ @ @ @ H F D h d | h x j m 6 , { ! 0 q d . h d ",
"e & g 8 n c ~ h 8 % 3 h f ] ^ e A H @ @ @ @ @ @ @ @ @ @ @ @ @ @ @ @ @ @ @ @ @ @ @ @ @ @ H H A & g n c ~ h 8 % 3 h % f ] ^ e & g ",
"x ! h t h # g * p 1 I g g & o x J K @ @ @ @ * L L L L L L L L M L L L L L L L L b @ @ @ H K J ! h h # g * p 1 I g p g & o x ! h ",
". + @ # + $ % & * # = - + ; > . N O @ @ @ @ 3                 M                 P @ @ @ H O N + @ + $ % & * # = - , + ; > . + @ ",
"' ) ! ~ - { ] ^ / ( , _ : < [ ' N O @ @ @ @ 3                 M                 P @ @ @ H O N ) ! - { ] ^ / ( , _ : : < [ ' ) ! ",
"} . | 1 2 . 3 4 5 ( , 6 7 [ 8 } N O @ @ @ @ 3                 M                 P @ @ @ H O N . | 2 . 3 4 5 ( , 6 9 7 [ 8 } . | ",
"0 a b ( = , c c d e f | g < 3 0 J K @ @ @ @ 3                 M                 P @ @ @ H K J a b = , c c d e f | 2 g < 3 0 a b ",
"f < ) : f > h * i * j e k , = f A H @ @ @ @ 3                 <                 P @ @ @ H H A < ) f > h * i * j e [ k , = f < ) ",
"l i m ~ b & 8 3 . } } ( + n < l A H @ @ @ @ 3                 @                 P @ @ @ H H A i m b & 8 3 . } } ( o + n < l i m ",
") 0 & $ 1 g h p * & % e b h d ) A H @ @ @ @ @ @ < < < < < < @ @ @ < < < < < < @ @ @ @ @ H H A 0 & 1 g h p * & % e q b h d ) 0 & ",
"_ . b r q n q s @ . s t i 0 / _ A H @ @ @ @ 3                 <                 P @ @ @ H H A . b q n q s @ . s t u i 0 / _ . b ",
". 6 ( * 5 v k # 2 : ; < . q v . A H @ @ @ @ 3                 M                 P @ @ @ H H A 6 ( 5 v k # 2 : ; < : . q v . 6 ( ",
"0 h d _ w x } % q g e 8 y s p 0 A H @ @ @ @ 3                 M                 P @ @ @ H H A h d w x } % q g e 8 < y s p 0 h d ",
"> e [ d < ' ) } 7 4 8 h < # d > A H @ @ @ @ 3                 M                 P @ @ @ H H A e [ < ' ) } 7 4 8 h n < # d > e [ ",
", | _ 0 ; m G s # n w ^ j % 1 , A H @ @ @ @ 3                 M                 P @ @ @ H H A | _ ; m G s # n w ^ G j % 1 , | _ ",
"^ d # h j Q b f 5 G i < % [ 6 ^ A H @ @ @ @ 3                 M                 P @ @ @ H H A d # j Q b f 5 G i < p % [ 6 ^ d # ",
". h d ; | h x j m 6 , { 0 q d . A H @ @ @ @ | R R R R R R R R @ R R R R R R R R , @ @ @ H H A h d | h x j m 6 , { ! 0 q d . h d ",
"e & g 8 n c ~ h 8 % 3 h f ] ^ e A H @ @ @ @ @ @ @ @ @ @ @ @ @ @ @ @ @ @ @ @ @ @ @ @ @ @ H H A & g n c ~ h 8 % 3 h % f ] ^ e & g ",
". + @ # + $ % & * # = - + ; > . A H @ @ @ @ @ @ @ @ @ @ @ @ @ @ @ @ @ @ @ @ @ @ @ @ @ @ H H A + @ + $ % & * # = - , + ; > . + @ ",
"' ) ! ~ - { ] ^ / ( , _ : < [ ' A H @ @ @ @ @ @ @ @ @ @ @ @ @ @ @ @ @ @ @ @ @ @ @ @ @ @ H H A ) ! - { ] ^ / ( , _ : : < [ ' ) ! ",
"} . | 1 2 . 3 4 5 ( , 6 7 [ 8 } A H @ @ @ @ @ @ @ @ @ @ @ @ @ @ @ @ @ @ @ @ @ S T @ @ @ H H A . | 2 . 3 4 5 ( , 6 9 7 [ 8 } . | ",
"0 a b ( = , c c d e f | g < 3 0 A H @ @ @ @ @ % % % % % % % % % % % % % % % % U V T T T W H A a b = , c c d e f | 2 g < 3 0 a b ",
"f < ) : f > h * i * j e k , = f J K @ @ @ @ X X X X X X X X M < M M M M M M M Y Z @ @ @ W K J < ) f > h * i * j e [ k , = f < ) ",
"l i m ~ b & 8 3 . } } ( + n < l N O ^ H H @ X M M M M M M M M < M M M M M M M `  .@ F F ..O N i m b & 8 3 . } } ( o + n < l i m ",
") 0 & $ 1 g h p * & % e b h d ) N O m H H @ X M M M M M M M M < M M M M M M M X % @ F H ..O N 0 & 1 g h p * & % e q b h d ) 0 & ",
"_ . b r q n q s @ . s t i 0 / _ N O m H H @ X M M M M M M M M < M M M M M M M X % @ F H ..O N . b q n q s @ . s t u i 0 / _ . b ",
". 6 ( * 5 v k # 2 : ; < . q v . J K m H H @ X M M M M M M M M < M M M M M M M X % @ F H ..K J 6 ( 5 v k # 2 : ; < : . q v . 6 ( ",
"0 h d _ w x } % q g e 8 y s p 0 A H m H H @ X M M M M M M M M < M M M M M M M X % @ F H ..H A h d w x } % q g e 8 < y s p 0 h d ",
"> e [ d < ' ) } 7 4 8 h < # d > A H m H H @ X M M M M M M M M < M M M M M M M X % @ F H ..H A e [ < ' ) } 7 4 8 h n < # d > e [ ",
", | _ 0 ; m G s # n w ^ j % 1 , A H m H H @ M M M M M M M M M < M X X X X X X X % @ F H ..H A | _ ; m G s # n w ^ G j % 1 , | _ ",
"^ d # h j Q b f 5 G i < % [ 6 ^ A H m H H @ < < < < < < < < < < < < < < < < < < % @ F H ..H A d # j Q b f 5 G i < p % [ 6 ^ d # ",
". h d ; | h x j m 6 , { 0 q d . A H m H H @ M M M M M M M M M < M M M M M M M M % @ F H ..H A h d | h x j m 6 , { ! 0 q d . h d ",
"e & g 8 n c ~ h 8 % 3 h f ] ^ e A H m H H @ M M M M M M M M M < X M M M M M M M % @ F H ..H A & g n c ~ h 8 % 3 h % f ] ^ e & g ",
"x ! h t h # g * p 1 I g g & o x A H m H H @ M M M M M M M M M < X M M M M M M M % @ F H ..H A ! h h # g * p 1 I g p g & o x ! h ",
". + @ # + $ % & * # = - + ; > . A H m H H @ M M M M M M M M M < X M M M M M M M % @ F H ..H A + @ + $ % & * # = - , + ; > . + @ ",
"' ) ! ~ - { ] ^ / ( , _ : < [ ' A H m H H @ M M M M M M M M M < X M M M M M M M % @ F H ..H A ) ! - { ] ^ / ( , _ : : < [ ' ) ! ",
"} . | 1 2 . 3 4 5 ( , 6 7 [ 8 } A H m H H @ M M M M M M M M M < X M M M M M M M % @ F H ..H A . | 2 . 3 4 5 ( , 6 9 7 [ 8 } . | ",
"f < ) : f > h * i * j e k , = f A H m H H @ M M M M M M M M M < X M M M M M M M % @ F H ..H A < ) f > h * i * j e [ k , = f < ) ",
"l i m ~ b & 8 3 . } } ( + n < l A H m H H @ M X X X X X X X M < X X X X X X X M % @ F H ..H A i m b & 8 3 . } } ( o + n < l i m ",
") 0 & $ 1 g h p * & % e b h d ) A H m H H @ < < < < < < < < < < < < < < < < < < % @ F H ..H A 0 & 1 g h p * & % e q b h d ) 0 & ",
"_ . b r q n q s @ . s t i 0 / _ A H m H H @ M M M M M M M M M < M M M M M M M M % @ F H ..H A . b q n q s @ . s t u i 0 / _ . b ",
". 6 ( * 5 v k # 2 : ; < . q v . A H m H H @ M M M M M M M M X < X M M M M M M X % @ F H ..H A 6 ( 5 v k # 2 : ; < : . q v . 6 ( ",
"0 h d _ w x } % q g e 8 y s p 0 A H m H H @ M M M M M M M M X < X M M M M M M X % @ F H ..H A h d w x } % q g e 8 < y s p 0 h d ",
"> e [ d < ' ) } 7 4 8 h < # d > A H m H H @ M M M M M M M M X < X M M M M M M X % @ F H ..H A e [ < ' ) } 7 4 8 h n < # d > e [ ",
", | _ 0 ; m G s # n w ^ j % 1 , J K m H H @ M M M M M M M M X < X M M M M M M X % @ F H ..K J | _ ; m G s # n w ^ G j % 1 , | _ ",
"^ d # h j Q b f 5 G i < % [ 6 ^ N O m H H @ M M M M M M M M X < X M M M M M M X % @ F H ..O N d # j Q b f 5 G i < p % [ 6 ^ d # ",
". h d ; | h x j m 6 , { 0 q d . N O m H H @ M M M M M M M M X < X M M M M M M X % @ F H ..O N h d | h x j m 6 , { ! 0 q d . h d ",
"e & g 8 n c ~ h 8 % 3 h f ] ^ e N O m H H @ M X X X X X X X X < X X X X X X X X % @ F H ..O N & g n c ~ h 8 % 3 h % f ] ^ e & g ",
"x ! h t h # g * p 1 I g g & o x J K m H H @ < < < < < < < < < < < < < < < < < < % @ F H ..K J ! h h # g * p 1 I g p g & o x ! h ",
". + @ # + $ % & * # = - + ; > . A H m H H @ @ X X X X X X X X X X X X X X X X X @ @ F H ..H A + @ + $ % & * # = - , + ; > . + @ ",
"' ) ! ~ - { ] ^ / ( , _ : < [ ' A H m H H @ @ @ @ @ @ @ @ @ @ @ @ @ @ @ @ @ @ @ @ @ F H ..H A ) ! - { ] ^ / ( , _ : : < [ ' ) ! ",
"} . | 1 2 . 3 4 5 ( , 6 7 [ 8 } A H m H H @ @ @ @ @ @ @ @ @ @ @ @ @ @ @ @ @ @ @ @ @ F H ..H A . | 2 . 3 4 5 ( , 6 9 7 [ 8 } . | "};
