/* XPM */
static char * door2_xpm[] = {
"64 64 87 1",
" 	c None",
".	c #888888",
"+	c #A8A8A8",
"@	c #AEAEAE",
"#	c #818181",
"$	c #767676",
"%	c #929292",
"&	c #7D7D7D",
"*	c #999999",
"=	c #C3C3C3",
"-	c #A1A1A1",
";	c #9B9B9B",
">	c #A0A0A0",
",	c #939393",
"'	c #9D9D9D",
")	c #8B8B8B",
"!	c #797979",
"~	c #A3A3A3",
"{	c #C0C0C0",
"]	c #7B7B7B",
"^	c #B3B3B3",
"/	c #ABABAB",
"(	c #949494",
"_	c #7E7E7E",
":	c #959595",
"<	c #878787",
"[	c #A9A9A9",
"}	c #909090",
"|	c #9E9E9E",
"1	c #858585",
"2	c #969696",
"3	c #898989",
"4	c #A4A4A4",
"5	c #989898",
"6	c #8E8E8E",
"7	c #7C7C7C",
"8	c #848484",
"9	c #BFBFBF",
"0	c #A7A7A7",
"a	c #707070",
"b	c #8D8D8D",
"c	c #868686",
"d	c #8F8F8F",
"e	c #7F7F7F",
"f	c #8C8C8C",
"g	c #8A8A8A",
"h	c #979797",
"i	c #808080",
"j	c #828282",
"k	c #A6A6A6",
"l	c #777777",
"m	c #B6B6B6",
"n	c #ADADAD",
"o	c #9F9F9F",
"p	c #919191",
"q	c #838383",
"r	c #A2A2A2",
"s	c #ACACAC",
"t	c #BABABA",
"u	c #757575",
"v	c #787878",
"w	c #9C9C9C",
"x	c #A5A5A5",
"y	c #B5B5B5",
"z	c #5C5B5B",
"A	c #565555",
"B	c #CFCFCF",
"C	c #555555",
"D	c #AAAAAA",
"E	c #C4C4C4",
"F	c #7A7A7A",
"G	c #606060",
"H	c #4D4D4D",
"I	c #2F2F2F",
"J	c #747474",
"K	c #717171",
"L	c #2A2A2A",
"M	c #B7B7B7",
"N	c #626262",
"O	c #6A6A6A",
"P	c #232323",
"Q	c #1C1C1C",
"R	c #484848",
"S	c #656565",
"T	c #BEBEBE",
"U	c #5D5D5D",
"V	c #2D2D2D",
".+@#+$%&*#=-+;>.+@#+$%&*#=-,+;>+@#+$%&*#=-,+;>.+@+$%&*#=-,+;>.+@",
"')!~-{]^/(,_:<[')!~-{]^/(,_::<[)!~-{]^/(,_::<[')!-{]^/(,_::<[')!",
"}.|12.345(,67[8}.|12.345(,697[8.|12.345(,697[8}.|2.345(,697[8}.|",
"0ab(=,ccdef|g<30ab(=,ccdef|2g<3ab(=,ccdef|2g<30ab=,ccdef|2g<30ab",
"f<):f>h*i*jek,=f<):f>h*i*je[k,=<):f>h*i*je[k,=f<)f>h*i*je[k,=f<)",
"lim~b&83.}}(+n<lim~b&83.}}(o+n<im~b&83.}}(o+n<limb&83.}}(o+n<lim",
")0&$1ghp*&%ebhd)0&$1ghp*&%eqbhd0&$1ghp*&%eqbhd)0&1ghp*&%eqbhd)0&",
"_.brqnqs@.sti0/_.brqnqs@.stui0/.brqnqs@.stui0/_.bqnqs@.stui0/_.b",
".6(*5vk#2:;<.qv.6(*5vk#2:;<:.qv6(*5vk#2:;<:.qv.6(5vk#2:;<:.qv.6(",
"0hd_wx}%qge8ysp0zAAAAAAAAAAAAAAAAAAAAAAAAAAAAAzhdwx}%qge8<ysp0hd",
">e[d<')}748h<#d>A9BBBBBBBB@@@@@              CAe[<')}748hn<#d>e[",
",|_0;mDs#nw^j%1,AEEEEEEEEEEBBBBBBB            A|_;mDs#nw^Dj%1,|_",
".hd;|hxjm6,{0qd.AE@@@@@@@@@EEEEEEE            Ahd|hxjm6,{!0qd.hd",
"e&g8nc~h8%3hf]^eAE@@@@@@@@@@@@@@@@@EEEE       A&gnc~h8%3h%f]^e&g",
"x!hth#g*p1Fgg&oxAG@@@*HHHHH@@@@@@@@@@@@@B     A!hh#g*p1Fgpg&ox!h",
".+@#+$%&*#=-+;>.AI@@@3     HHJHHHHHH@@@@E     A+@+$%&*#=-,+;>.+@",
"')!~-{]^/(,_:<['AI@@@3       J      b@@@E     A)!-{]^/(,_::<[')!",
"}.|12.345(,67[8}AI@@@3       J      K@@@E     A.|2.345(,697[8}.|",
"0ab(=,ccdef|g<30AG@@@3       J      K@@LG     Aab=,ccdef|2g<30ab",
"f<):f>h*i*jek,=fAE@@@3       J      K@@LI     A<)f>h*i*je[k,=f<)",
"lim~b&83.}}(+n<lAE@@@3       <      K@@LI     Aimb&83.}}(o+n<lim",
")0&$1ghp*&%ebhd)AE@@@@@<<<<< @      K@@CG     A0&1ghp*&%eqbhd)0&",
"_.brqnqs@.sti0/_AE@@@3      J@@<<<<<@@@@E     A.bqnqs@.stui0/_.b",
".6(*5vk#2:;<.qv.AE@@@3       <      K@@@E     A6(5vk#2:;<:.qv.6(",
"0hd_wx}%qge8ysp0AE@@@3       J      K@@@E     Ahdwx}%qge8<ysp0hd",
">e[d<')}748h<#d>AE@@@3       J      K@@@E     Ae[<')}748hn<#d>e[",
",|_0;mDs#nw^j%1,AE@@@3       J      K@@@E     A|_;mDs#nw^Dj%1,|_",
"^d#hjMbf5Di<%[6^AE@@@3       J      K@@@E     Ad#jMbf5Di<p%[6^d#",
".hd;|hxjm6,{0qd.AE@@@|NNNNNNN@      K@@@E     Ahd|hxjm6,{!0qd.hd",
"e&g8nc~h8%3hf]^eAE@@@@@@@@@@@@NNNNNN,@@@E     A&gnc~h8%3h%f]^e&g",
".+@#+$%&*#=-+;>.AE@@@@@@@@@@@@@@@@@@@@@@E     A+@+$%&*#=-,+;>.+@",
"')!~-{]^/(,_:<['AE@@@@@@@@@@@@@@@@@@@@@@E     A)!-{]^/(,_::<[')!",
"}.|12.345(,67[8}AE@@@@@@@@@@@@@@@@@@@@@@E     A.|2.345(,697[8}.|",
"0ab(=,ccdef|g<30AE@@@@%%%%%%%%%%@@@@@@@@E     Aab=,ccdef|2g<30ab",
"f<):f>h*i*jek,=fAG@@@OOOOOOOu<uu%%%P@@@@E     A<)f>h*i*je[k,=f<)",
"lim~b&83.}}(+n<lAI^E@Ouuuuuuu<uuuuuQRCC@E     Aimb&83.}}(o+n<lim",
")0&$1ghp*&%ebhd)AImE@Ouuuuuuu<uuuuuQ%@BSG     A0&1ghp*&%eqbhd)0&",
"_.brqnqs@.sti0/_AImE@Ouuuuuuu<uuuuuQ%@BII     A.bqnqs@.stui0/_.b",
".6(*5vk#2:;<.qv.AGmE@Ouuuuuuu<uuuuuu%@BII     A6(5vk#2:;<:.qv.6(",
"0hd_wx}%qge8ysp0AEmE@Ouuuuuuu<uuuuuu%@BII     Ahdwx}%qge8<ysp0hd",
">e[d<')}748h<#d>AEmE@Ouuuuuuu<uuuuuu%@BGG     Ae[<')}748hn<#d>e[",
",|_0;mDs#nw^j%1,AEmE@uuuuuuuu<uOOOOu%@BEE     A|_;mDs#nw^Dj%1,|_",
"^d#hjMbf5Di<%[6^AEmE@<<<<<<<<<<<<<<O%@BEE     Ad#jMbf5Di<p%[6^d#",
".hd;|hxjm6,{0qd.AEmE@uuuuuuuu<uuuuuu%@BEE     Ahd|hxjm6,{!0qd.hd",
"e&g8nc~h8%3hf]^eAEmE@uuuuuuuu<Ouuuuu%@BEE     A&gnc~h8%3h%f]^e&g",
"x!hth#g*p1Fgg&oxAEmE@uuuuuuuu<Ouuuuu%@BEE     A!hh#g*p1Fgpg&ox!h",
".+@#+$%&*#=-+;>.AEmE@uuuuuuuu<Ouuuuu%@BEE     A+@+$%&*#=-,+;>.+@",
"')!~-{]^/(,_:<['AEmE@uuuuuuuu<Ouuuuu%@BEE     A)!-{]^/(,_::<[')!",
"}.|12.345(,67[8}AEmE@uuuuuuuu<Ouuuuu%@BEE     A.|2.345(,697[8}.|",
"f<):f>h*i*jek,=fAEmE@uuuuuuuu<Ouuuuu%@BEE     A<)f>h*i*je[k,=f<)",
"lim~b&83.}}(+n<lAEmE@uOOOOOOu<OOOOOO%@BEE     Aimb&83.}}(o+n<lim",
")0&$1ghp*&%ebhd)AEmE@<<<<<<<<<<<<<<<%@BEE     A0&1ghp*&%eqbhd)0&",
"_.brqnqs@.sti0/_AEmE@uuuuuuuu<uuuuuu%@BET     A.bqnqs@.stui0/_.b",
".6(*5vk#2:;<.qv.AEmE@uuuuuuuO<Ouuuuu%@BET     A6(5vk#2:;<:.qv.6(",
"0hd_wx}%qge8ysp0AEmE@uuuuuuuO<Ouuuuu%@BET     Ahdwx}%qge8<ysp0hd",
">e[d<')}748h<#d>AEmE@uuuuuuuO<Ouuuuu%@BET     Ae[<')}748hn<#d>e[",
",|_0;mDs#nw^j%1,AGmE@uuuuuuuO<Ouuuuu%@BET     A|_;mDs#nw^Dj%1,|_",
"^d#hjMbf5Di<%[6^AImE@uuuuuuuO<Ouuuuu%@BEU     Ad#jMbf5Di<p%[6^d#",
".hd;|hxjm6,{0qd.AImE@uuuuuuuO<Ouuuuu%@BEV     Ahd|hxjm6,{!0qd.hd",
"e&g8nc~h8%3hf]^eAImE@uOOOOOOO<OOOOOO%@BEV     A&gnc~h8%3h%f]^e&g",
"x!hth#g*p1Fgg&oxAGmE@<<<<<<<<<<<<<<<%@BEV     A!hh#g*p1Fgpg&ox!h",
".+@#+$%&*#=-+;>.AEmE@@OOOOOOOOOOOOOO@@BEU     A+@+$%&*#=-,+;>.+@",
"')!~-{]^/(,_:<['AEmE@@@@@@@@@@@@@@@@@@BET     A)!-{]^/(,_::<[')!",
"}.|12.345(,67[8}AEmE@@@@@@@@@@@@@@@@@@BET     A.|2.345(,697[8}.|"};
