/* XPM */
static char * door6_xpm[] = {
"64 64 70 1",
" 	c None",
".	c #888888",
"+	c #A8A8A8",
"@	c #AEAEAE",
"#	c #818181",
"$	c #767676",
"%	c #929292",
"&	c #7D7D7D",
"*	c #999999",
"=	c #C3C3C3",
"-	c #A1A1A1",
";	c #9B9B9B",
">	c #A0A0A0",
",	c #939393",
"'	c #9D9D9D",
")	c #8B8B8B",
"!	c #797979",
"~	c #A3A3A3",
"{	c #C0C0C0",
"]	c #7B7B7B",
"^	c #B3B3B3",
"/	c #ABABAB",
"(	c #949494",
"_	c #7E7E7E",
":	c #959595",
"<	c #878787",
"[	c #A9A9A9",
"}	c #909090",
"|	c #9E9E9E",
"1	c #858585",
"2	c #969696",
"3	c #898989",
"4	c #A4A4A4",
"5	c #989898",
"6	c #8E8E8E",
"7	c #7C7C7C",
"8	c #848484",
"9	c #BFBFBF",
"0	c #A7A7A7",
"a	c #707070",
"b	c #8D8D8D",
"c	c #868686",
"d	c #8F8F8F",
"e	c #7F7F7F",
"f	c #8C8C8C",
"g	c #8A8A8A",
"h	c #979797",
"i	c #808080",
"j	c #828282",
"k	c #A6A6A6",
"l	c #777777",
"m	c #B6B6B6",
"n	c #ADADAD",
"o	c #9F9F9F",
"p	c #919191",
"q	c #838383",
"r	c #A2A2A2",
"s	c #ACACAC",
"t	c #BABABA",
"u	c #757575",
"v	c #787878",
"w	c #9C9C9C",
"x	c #A5A5A5",
"y	c #B5B5B5",
"z	c #5C5B5B",
"A	c #565555",
"B	c #555555",
"C	c #AAAAAA",
"D	c #7A7A7A",
"E	c #B7B7B7",
".+@#+$%&*#=-+;>.+@#+$%&*#=-,+;>+@#+$%&*#=-,+;>.+@+$%&*#=-,+;>.+@",
"')!~-{]^/(,_:<[')!~-{]^/(,_::<[)!~-{]^/(,_::<[')!-{]^/(,_::<[')!",
"}.|12.345(,67[8}.|12.345(,697[8.|12.345(,697[8}.|2.345(,697[8}.|",
"0ab(=,ccdef|g<30ab(=,ccdef|2g<3ab(=,ccdef|2g<30ab=,ccdef|2g<30ab",
"f<):f>h*i*jek,=f<):f>h*i*je[k,=<):f>h*i*je[k,=f<)f>h*i*je[k,=f<)",
"lim~b&83.}}(+n<lim~b&83.}}(o+n<im~b&83.}}(o+n<limb&83.}}(o+n<lim",
")0&$1ghp*&%ebhd)0&$1ghp*&%eqbhd0&$1ghp*&%eqbhd)0&1ghp*&%eqbhd)0&",
"_.brqnqs@.sti0/_.brqnqs@.stui0/.brqnqs@.stui0/_.bqnqs@.stui0/_.b",
".6(*5vk#2:;<.qv.6(*5vk#2:;<:.qv6(*5vk#2:;<:.qv.6(5vk#2:;<:.qv.6(",
"0hd_wx}%qge8ysp0zAAAAAAAAAAAAAAAAAAAAAAAAAAAAAzhdwx}%qge8<ysp0hd",
">e[d<')}748h<#d>AB                           BAe[<')}748hn<#d>e[",
",|_0;mCs#nw^j%1,A                             A|_;mCs#nw^Cj%1,|_",
".hd;|hxjm6,{0qd.A                             Ahd|hxjm6,{!0qd.hd",
"e&g8nc~h8%3hf]^eA                             A&gnc~h8%3h%f]^e&g",
"x!hth#g*p1Dgg&oxA                             A!hh#g*p1Dgpg&ox!h",
".+@#+$%&*#=-+;>.A                             A+@+$%&*#=-,+;>.+@",
"')!~-{]^/(,_:<['A                             A)!-{]^/(,_::<[')!",
"}.|12.345(,67[8}A                             A.|2.345(,697[8}.|",
"0ab(=,ccdef|g<30A                             Aab=,ccdef|2g<30ab",
"f<):f>h*i*jek,=fA                             A<)f>h*i*je[k,=f<)",
"lim~b&83.}}(+n<lA                             Aimb&83.}}(o+n<lim",
")0&$1ghp*&%ebhd)A                             A0&1ghp*&%eqbhd)0&",
"_.brqnqs@.sti0/_A                             A.bqnqs@.stui0/_.b",
".6(*5vk#2:;<.qv.A                             A6(5vk#2:;<:.qv.6(",
"0hd_wx}%qge8ysp0A                             Ahdwx}%qge8<ysp0hd",
">e[d<')}748h<#d>A                             Ae[<')}748hn<#d>e[",
",|_0;mCs#nw^j%1,A                             A|_;mCs#nw^Cj%1,|_",
"^d#hjEbf5Ci<%[6^A                             Ad#jEbf5Ci<p%[6^d#",
".hd;|hxjm6,{0qd.A                             Ahd|hxjm6,{!0qd.hd",
"e&g8nc~h8%3hf]^eA                             A&gnc~h8%3h%f]^e&g",
".+@#+$%&*#=-+;>.A                             A+@+$%&*#=-,+;>.+@",
"')!~-{]^/(,_:<['A                             A)!-{]^/(,_::<[')!",
"}.|12.345(,67[8}A                             A.|2.345(,697[8}.|",
"0ab(=,ccdef|g<30A                             Aab=,ccdef|2g<30ab",
"f<):f>h*i*jek,=fA                             A<)f>h*i*je[k,=f<)",
"lim~b&83.}}(+n<lA                             Aimb&83.}}(o+n<lim",
")0&$1ghp*&%ebhd)A                             A0&1ghp*&%eqbhd)0&",
"_.brqnqs@.sti0/_A                             A.bqnqs@.stui0/_.b",
".6(*5vk#2:;<.qv.A                             A6(5vk#2:;<:.qv.6(",
"0hd_wx}%qge8ysp0A                             Ahdwx}%qge8<ysp0hd",
">e[d<')}748h<#d>A                             Ae[<')}748hn<#d>e[",
",|_0;mCs#nw^j%1,A                             A|_;mCs#nw^Cj%1,|_",
"^d#hjEbf5Ci<%[6^A                             Ad#jEbf5Ci<p%[6^d#",
".hd;|hxjm6,{0qd.A                             Ahd|hxjm6,{!0qd.hd",
"e&g8nc~h8%3hf]^eA                             A&gnc~h8%3h%f]^e&g",
"x!hth#g*p1Dgg&oxA                             A!hh#g*p1Dgpg&ox!h",
".+@#+$%&*#=-+;>.A                             A+@+$%&*#=-,+;>.+@",
"')!~-{]^/(,_:<['A                             A)!-{]^/(,_::<[')!",
"}.|12.345(,67[8}A                             A.|2.345(,697[8}.|",
"f<):f>h*i*jek,=fA                             A<)f>h*i*je[k,=f<)",
"lim~b&83.}}(+n<lA                             Aimb&83.}}(o+n<lim",
")0&$1ghp*&%ebhd)A                             A0&1ghp*&%eqbhd)0&",
"_.brqnqs@.sti0/_A                             A.bqnqs@.stui0/_.b",
".6(*5vk#2:;<.qv.A                             A6(5vk#2:;<:.qv.6(",
"0hd_wx}%qge8ysp0A                             Ahdwx}%qge8<ysp0hd",
">e[d<')}748h<#d>A                             Ae[<')}748hn<#d>e[",
",|_0;mCs#nw^j%1,A                             A|_;mCs#nw^Cj%1,|_",
"^d#hjEbf5Ci<%[6^A                             Ad#jEbf5Ci<p%[6^d#",
".hd;|hxjm6,{0qd.A                             Ahd|hxjm6,{!0qd.hd",
"e&g8nc~h8%3hf]^eA                             A&gnc~h8%3h%f]^e&g",
"x!hth#g*p1Dgg&oxA                             A!hh#g*p1Dgpg&ox!h",
".+@#+$%&*#=-+;>.A                             A+@+$%&*#=-,+;>.+@",
"')!~-{]^/(,_:<['A                             A)!-{]^/(,_::<[')!",
"}.|12.345(,67[8}A                             A.|2.345(,697[8}.|"};
