/* XPM */
static char * door3_xpm[] = {
"64 64 87 1",
" 	c None",
".	c #888888",
"+	c #A8A8A8",
"@	c #AEAEAE",
"#	c #818181",
"$	c #767676",
"%	c #929292",
"&	c #7D7D7D",
"*	c #999999",
"=	c #C3C3C3",
"-	c #A1A1A1",
";	c #9B9B9B",
">	c #A0A0A0",
",	c #939393",
"'	c #9D9D9D",
")	c #8B8B8B",
"!	c #797979",
"~	c #A3A3A3",
"{	c #C0C0C0",
"]	c #7B7B7B",
"^	c #B3B3B3",
"/	c #ABABAB",
"(	c #949494",
"_	c #7E7E7E",
":	c #959595",
"<	c #878787",
"[	c #A9A9A9",
"}	c #909090",
"|	c #9E9E9E",
"1	c #858585",
"2	c #969696",
"3	c #898989",
"4	c #A4A4A4",
"5	c #989898",
"6	c #8E8E8E",
"7	c #7C7C7C",
"8	c #848484",
"9	c #BFBFBF",
"0	c #A7A7A7",
"a	c #707070",
"b	c #8D8D8D",
"c	c #868686",
"d	c #8F8F8F",
"e	c #7F7F7F",
"f	c #8C8C8C",
"g	c #8A8A8A",
"h	c #979797",
"i	c #808080",
"j	c #828282",
"k	c #A6A6A6",
"l	c #777777",
"m	c #B6B6B6",
"n	c #ADADAD",
"o	c #9F9F9F",
"p	c #919191",
"q	c #838383",
"r	c #A2A2A2",
"s	c #ACACAC",
"t	c #BABABA",
"u	c #757575",
"v	c #787878",
"w	c #9C9C9C",
"x	c #A5A5A5",
"y	c #B5B5B5",
"z	c #5C5B5B",
"A	c #565555",
"B	c #CFCFCF",
"C	c #555555",
"D	c #AAAAAA",
"E	c #C4C4C4",
"F	c #7A7A7A",
"G	c #2A2A2A",
"H	c #4D4D4D",
"I	c #747474",
"J	c #717171",
"K	c #606060",
"L	c #2F2F2F",
"M	c #B7B7B7",
"N	c #626262",
"O	c #6A6A6A",
"P	c #2B2B2B",
"Q	c #232323",
"R	c #2C2C2C",
"S	c #1C1C1C",
"T	c #090909",
"U	c #111111",
"V	c #595959",
".+@#+$%&*#=-+;>.+@#+$%&*#=-,+;>+@#+$%&*#=-,+;>.+@+$%&*#=-,+;>.+@",
"')!~-{]^/(,_:<[')!~-{]^/(,_::<[)!~-{]^/(,_::<[')!-{]^/(,_::<[')!",
"}.|12.345(,67[8}.|12.345(,697[8.|12.345(,697[8}.|2.345(,697[8}.|",
"0ab(=,ccdef|g<30ab(=,ccdef|2g<3ab(=,ccdef|2g<30ab=,ccdef|2g<30ab",
"f<):f>h*i*jek,=f<):f>h*i*je[k,=<):f>h*i*je[k,=f<)f>h*i*je[k,=f<)",
"lim~b&83.}}(+n<lim~b&83.}}(o+n<im~b&83.}}(o+n<limb&83.}}(o+n<lim",
")0&$1ghp*&%ebhd)0&$1ghp*&%eqbhd0&$1ghp*&%eqbhd)0&1ghp*&%eqbhd)0&",
"_.brqnqs@.sti0/_.brqnqs@.stui0/.brqnqs@.stui0/_.bqnqs@.stui0/_.b",
".6(*5vk#2:;<.qv.6(*5vk#2:;<:.qv6(*5vk#2:;<:.qv.6(5vk#2:;<:.qv.6(",
"0hd_wx}%qge8ysp0zAAAAAAAAAAAAAAAAAAAAAAAAAAAAAzhdwx}%qge8<ysp0hd",
">e[d<')}748h<#d>AtBBB@@@@                    CAe[<')}748hn<#d>e[",
",|_0;mDs#nw^j%1,A@EEEBBBB@@                   A|_;mDs#nw^Dj%1,|_",
".hd;|hxjm6,{0qd.A@@@@EEEEBBB@                 Ahd|hxjm6,{!0qd.hd",
"e&g8nc~h8%3hf]^eA@@@@@@@@EEEBBB@              A&gnc~h8%3h%f]^e&g",
"x!hth#g*p1Fgg&oxACC@*@@@@@@@EEEBBBB           A!hh#g*p1Fgpg&ox!h",
".+@#+$%&*#=-+;>.AGG@3HHHH@@@@@@@EEEB          A+@+$%&*#=-,+;>.+@",
"')!~-{]^/(,_:<['AGG@3    HIHH@@@@@@E          A)!-{]^/(,_::<[')!",
"}.|12.345(,67[8}AGG@3     I  HHH@@@B          A.|2.345(,697[8}.|",
"0ab(=,ccdef|g<30ACC@3     I     b@@E          Aab=,ccdef|2g<30ab",
"f<):f>h*i*jek,=fA@@@3     I     J@@E          A<)f>h*i*je[k,=f<)",
"lim~b&83.}}(+n<lA@@@3     I     J@@K          Aimb&83.}}(o+n<lim",
")0&$1ghp*&%ebhd)A@@@@@    <     J@@L          A0&1ghp*&%eqbhd)0&",
"_.brqnqs@.sti0/_A@@@3 <<<<@     J@@L          A.bqnqs@.stui0/_.b",
".6(*5vk#2:;<.qv.A@@@3     @@<<  J@@K          A6(5vk#2:;<:.qv.6(",
"0hd_wx}%qge8ysp0A@@@3     <   <<@@@E          Ahdwx}%qge8<ysp0hd",
">e[d<')}748h<#d>A@@@3     I     J@@E          Ae[<')}748hn<#d>e[",
",|_0;mDs#nw^j%1,A@@@3     I     J@@E          A|_;mDs#nw^Dj%1,|_",
"^d#hjMbf5Di<%[6^A@@@3     I     J@@E          Ad#jMbf5Di<p%[6^d#",
".hd;|hxjm6,{0qd.A@@@|N    I     J@@E          Ahd|hxjm6,{!0qd.hd",
"e&g8nc~h8%3hf]^eA@@@@@NNNN@     J@@E          A&gnc~h8%3h%f]^e&g",
".+@#+$%&*#=-+;>.A@@@@@@@@@@NNNNNJ@@E          A+@+$%&*#=-,+;>.+@",
"')!~-{]^/(,_:<['A@@@@@@@@@@@@@@@@@@E          A)!-{]^/(,_::<[')!",
"}.|12.345(,67[8}A@@@@@@@@@@@@@@@@@@E          A.|2.345(,697[8}.|",
"0ab(=,ccdef|g<30A@@@@%@@@@@@@@@@@@@E          Aab=,ccdef|2g<30ab",
"f<):f>h*i*jek,=fACC@OOO%%%%%@@@@@@@E          A<)f>h*i*je[k,=f<)",
"lim~b&83.}}(+n<lAPL@OuuOOO<uu%%QC@@E          Aimb&83.}}(o+n<lim",
")0&$1ghp*&%ebhd)ARL@Ouuuuu<uuuuSTC@E          A0&1ghp*&%eqbhd)0&",
"_.brqnqs@.sti0/_ARL@Ouuuuu<uuuuSU@BK          A.bqnqs@.stui0/_.b",
".6(*5vk#2:;<.qv.AVK@Ouuuuu<uuuuuQ@EL          A6(5vk#2:;<:.qv.6(",
"0hd_wx}%qge8ysp0AmE@Ouuuuu<uuuuu%@EL          Ahdwx}%qge8<ysp0hd",
">e[d<')}748h<#d>AmE@Ouuuuu<uuuuu%@EL          Ae[<')}748hn<#d>e[",
",|_0;mDs#nw^j%1,AmE@uuuuuu<uuuuu%@EK          A|_;mDs#nw^Dj%1,|_",
"^d#hjMbf5Di<%[6^AmE@<<<<uu<uOOOO%@EE          Ad#jMbf5Di<p%[6^d#",
".hd;|hxjm6,{0qd.AmE@uuuu<<<<<<<<%@EE          Ahd|hxjm6,{!0qd.hd",
"e&g8nc~h8%3hf]^eAmE@uuuuuu<uuuuu%@EE          A&gnc~h8%3h%f]^e&g",
"x!hth#g*p1Fgg&oxAmE@uuuuuu<Ouuuu%@EE          A!hh#g*p1Fgpg&ox!h",
".+@#+$%&*#=-+;>.AmE@uuuuuu<Ouuuu%@EE          A+@+$%&*#=-,+;>.+@",
"')!~-{]^/(,_:<['AmE@uuuuuu<Ouuuu%@EE          A)!-{]^/(,_::<[')!",
"}.|12.345(,67[8}AmE@uuuuuu<Ouuuu%@EE          A.|2.345(,697[8}.|",
"f<):f>h*i*jek,=fAmE@uuuuuu<Ouuuu%BEE          A<)f>h*i*je[k,=f<)",
"lim~b&83.}}(+n<lAmE@uOOOOO<Ouuuu%BEE          Aimb&83.}}(o+n<lim",
")0&$1ghp*&%ebhd)AmE@<<<<<<<OOOOO%BEE          A0&1ghp*&%eqbhd)0&",
"_.brqnqs@.sti0/_AmE@uuuuuu<u<<<<%BEE          A.bqnqs@.stui0/_.b",
".6(*5vk#2:;<.qv.AmE@uuuuuu<Ouuuu%BEE          A6(5vk#2:;<:.qv.6(",
"0hd_wx}%qge8ysp0AmE@uuuuuu<Ouuuu%BEE          Ahdwx}%qge8<ysp0hd",
">e[d<')}748h<#d>AmE@uuuuuu<Ouuuu%BEE          Ae[<')}748hn<#d>e[",
",|_0;mDs#nw^j%1,AVK@uuuuuu<Ouuuu%BEE          A|_;mDs#nw^Dj%1,|_",
"^d#hjMbf5Di<%[6^ARL@uuuuuu<Ouuuu%BEK          Ad#jMbf5Di<p%[6^d#",
".hd;|hxjm6,{0qd.ARL@uuuuuu<Ouuuu%BEL          Ahd|hxjm6,{!0qd.hd",
"e&g8nc~h8%3hf]^eARL@uOOOOO<OOOOO%BEL          A&gnc~h8%3h%f]^e&g",
"x!hth#g*p1Fgg&oxAVK@<<<<<<<<<<<<%BEL          A!hh#g*p1Fgpg&ox!h",
".+@#+$%&*#=-+;>.AmE@@OOOOOOOOOOO@BEK          A+@+$%&*#=-,+;>.+@",
"')!~-{]^/(,_:<['AmE@@@@@@@@@@@@@@BEE          A)!-{]^/(,_::<[')!",
"}.|12.345(,67[8}AmE@@@@@@@@@@@@@@BEE          A.|2.345(,697[8}.|"};
