/* XPM */
static char * door4_xpm[] = {
"64 64 84 1",
" 	c None",
".	c #888888",
"+	c #A8A8A8",
"@	c #AEAEAE",
"#	c #818181",
"$	c #767676",
"%	c #929292",
"&	c #7D7D7D",
"*	c #999999",
"=	c #C3C3C3",
"-	c #A1A1A1",
";	c #9B9B9B",
">	c #A0A0A0",
",	c #939393",
"'	c #9D9D9D",
")	c #8B8B8B",
"!	c #797979",
"~	c #A3A3A3",
"{	c #C0C0C0",
"]	c #7B7B7B",
"^	c #B3B3B3",
"/	c #ABABAB",
"(	c #949494",
"_	c #7E7E7E",
":	c #959595",
"<	c #878787",
"[	c #A9A9A9",
"}	c #909090",
"|	c #9E9E9E",
"1	c #858585",
"2	c #969696",
"3	c #898989",
"4	c #A4A4A4",
"5	c #989898",
"6	c #8E8E8E",
"7	c #7C7C7C",
"8	c #848484",
"9	c #BFBFBF",
"0	c #A7A7A7",
"a	c #707070",
"b	c #8D8D8D",
"c	c #868686",
"d	c #8F8F8F",
"e	c #7F7F7F",
"f	c #8C8C8C",
"g	c #8A8A8A",
"h	c #979797",
"i	c #808080",
"j	c #828282",
"k	c #A6A6A6",
"l	c #777777",
"m	c #B6B6B6",
"n	c #ADADAD",
"o	c #9F9F9F",
"p	c #919191",
"q	c #838383",
"r	c #A2A2A2",
"s	c #ACACAC",
"t	c #BABABA",
"u	c #757575",
"v	c #787878",
"w	c #9C9C9C",
"x	c #A5A5A5",
"y	c #B5B5B5",
"z	c #5C5B5B",
"A	c #565555",
"B	c #555555",
"C	c #AAAAAA",
"D	c #CFCFCF",
"E	c #C4C4C4",
"F	c #7A7A7A",
"G	c #2A2A2A",
"H	c #4D4D4D",
"I	c #747474",
"J	c #606060",
"K	c #717171",
"L	c #2F2F2F",
"M	c #B7B7B7",
"N	c #626262",
"O	c #6A6A6A",
"P	c #1E1E1E",
"Q	c #1C1C1C",
"R	c #191919",
"S	c #BEBEBE",
".+@#+$%&*#=-+;>.+@#+$%&*#=-,+;>+@#+$%&*#=-,+;>.+@+$%&*#=-,+;>.+@",
"')!~-{]^/(,_:<[')!~-{]^/(,_::<[)!~-{]^/(,_::<[')!-{]^/(,_::<[')!",
"}.|12.345(,67[8}.|12.345(,697[8.|12.345(,697[8}.|2.345(,697[8}.|",
"0ab(=,ccdef|g<30ab(=,ccdef|2g<3ab(=,ccdef|2g<30ab=,ccdef|2g<30ab",
"f<):f>h*i*jek,=f<):f>h*i*je[k,=<):f>h*i*je[k,=f<)f>h*i*je[k,=f<)",
"lim~b&83.}}(+n<lim~b&83.}}(o+n<im~b&83.}}(o+n<limb&83.}}(o+n<lim",
")0&$1ghp*&%ebhd)0&$1ghp*&%eqbhd0&$1ghp*&%eqbhd)0&1ghp*&%eqbhd)0&",
"_.brqnqs@.sti0/_.brqnqs@.stui0/.brqnqs@.stui0/_.bqnqs@.stui0/_.b",
".6(*5vk#2:;<.qv.6(*5vk#2:;<:.qv6(*5vk#2:;<:.qv.6(5vk#2:;<:.qv.6(",
"0hd_wx}%qge8ysp0zAAAAAAAAAAAAAAAAAAAAAAAAAAAAAzhdwx}%qge8<ysp0hd",
">e[d<')}748h<#d>A@@@                         BAe[<')}748hn<#d>e[",
",|_0;mCs#nw^j%1,ADD@@@                        A|_;mCs#nw^Cj%1,|_",
".hd;|hxjm6,{0qd.AEEDDDD@                      Ahd|hxjm6,{!0qd.hd",
"e&g8nc~h8%3hf]^eA@@EEEEDDD                    A&gnc~h8%3h%f]^e&g",
"x!hth#g*p1Fgg&oxAB@@@@@EEEDDD                 A!hh#g*p1Fgpg&ox!h",
".+@#+$%&*#=-+;>.AG@@@@@@@@EEEDD               A+@+$%&*#=-,+;>.+@",
"')!~-{]^/(,_:<['AG@*HH@@@@@@@EEE              A)!-{]^/(,_::<[')!",
"}.|12.345(,67[8}AG@3  HHIH@@@@@E              A.|2.345(,697[8}.|",
"0ab(=,ccdef|g<30AB@3    I HHH@@E              Aab=,ccdef|2g<30ab",
"f<):f>h*i*jek,=fAB@3    I    b@J              A<)f>h*i*je[k,=f<)",
"lim~b&83.}}(+n<lA@@3    I    K@L              Aimb&83.}}(o+n<lim",
")0&$1ghp*&%ebhd)A@@3    I    K@L              A0&1ghp*&%eqbhd)0&",
"_.brqnqs@.sti0/_A@@3    <    K@L              A.bqnqs@.stui0/_.b",
".6(*5vk#2:;<.qv.A@@@<<< @    K@J              A6(5vk#2:;<:.qv.6(",
"0hd_wx}%qge8ysp0A@@3   <@<<  K@E              Ahdwx}%qge8<ysp0hd",
">e[d<')}748h<#d>A@@3    <  <<@@E              Ae[<')}748hn<#d>e[",
",|_0;mCs#nw^j%1,A@@3    I    K@E              A|_;mCs#nw^Cj%1,|_",
"^d#hjMbf5Ci<%[6^A@@3    I    K@E              Ad#jMbf5Ci<p%[6^d#",
".hd;|hxjm6,{0qd.A@@3    I    K@E              Ahd|hxjm6,{!0qd.hd",
"e&g8nc~h8%3hf]^eA@@3    I    @@E              A&gnc~h8%3h%f]^e&g",
".+@#+$%&*#=-+;>.A@@|NNN I    @@E              A+@+$%&*#=-,+;>.+@",
"')!~-{]^/(,_:<['A@@@@@@N@NNN @@E              A)!-{]^/(,_::<[')!",
"}.|12.345(,67[8}A@@@@@@@@@@@@@@E              A.|2.345(,697[8}.|",
"0ab(=,ccdef|g<30A@@@@@@@@@@@@@@E              Aab=,ccdef|2g<30ab",
"f<):f>h*i*jek,=fA@@@@@@@@@@@@@@E              A<)f>h*i*je[k,=f<)",
"lim~b&83.}}(+n<lAB@@%%%%@@@@@@@E              Aimb&83.}}(o+n<lim",
")0&$1ghp*&%ebhd)ALEOOOOO<%%%P@@E              A0&1ghp*&%eqbhd)0&",
"_.brqnqs@.sti0/_ALEOuuuu<uuuQBBE              A.bqnqs@.stui0/_.b",
".6(*5vk#2:;<.qv.ALEOuuuu<uuuR@DJ              A6(5vk#2:;<:.qv.6(",
"0hd_wx}%qge8ysp0AJEOuuuu<uuuO@EL              Ahdwx}%qge8<ysp0hd",
">e[d<')}748h<#d>AEEOuuuu<uuuO@EL              Ae[<')}748hn<#d>e[",
",|_0;mCs#nw^j%1,AEEOuuuu<uuuO@EL              A|_;mCs#nw^Cj%1,|_",
"^d#hjMbf5Ci<%[6^AEEuuuuu<uuuO@EJ              Ad#jMbf5Ci<p%[6^d#",
".hd;|hxjm6,{0qd.AEE<<uuu<OOOO@EE              Ahd|hxjm6,{!0qd.hd",
"e&g8nc~h8%3hf]^eAEEuu<<<<<<<<@EE              A&gnc~h8%3h%f]^e&g",
"x!hth#g*p1Fgg&oxAEEuuuuu<uuuu@EE              A!hh#g*p1Fgpg&ox!h",
".+@#+$%&*#=-+;>.AEEuuuuu<uuuu@EE              A+@+$%&*#=-,+;>.+@",
"')!~-{]^/(,_:<['AEEuuuuu<uuuu@EE              A)!-{]^/(,_::<[')!",
"}.|12.345(,67[8}AEEuuuuu<uuuu@EE              A.|2.345(,697[8}.|",
"f<):f>h*i*jek,=fAEEuuuuu<uuuu@EE              A<)f>h*i*je[k,=f<)",
"lim~b&83.}}(+n<lAE@uuuuu<uuuu@EE              Aimb&83.}}(o+n<lim",
")0&$1ghp*&%ebhd)AE@uOOOu<OOOu@EE              A0&1ghp*&%eqbhd)0&",
"_.brqnqs@.sti0/_AE@<<<<<<<<<<@EE              A.bqnqs@.stui0/_.b",
".6(*5vk#2:;<.qv.AE@uuuuuuuuuu@EE              A6(5vk#2:;<:.qv.6(",
"0hd_wx}%qge8ysp0AE@uuuuOOuuuO@EE              Ahdwx}%qge8<ysp0hd",
">e[d<')}748h<#d>AE@uuuuOOuuuO@SE              Ae[<')}748hn<#d>e[",
",|_0;mCs#nw^j%1,AJ@uuuuOOuuuO@SE              A|_;mCs#nw^Cj%1,|_",
"^d#hjMbf5Ci<%[6^AL@uuuuOOuuuODSE              Ad#jMbf5Ci<p%[6^d#",
".hd;|hxjm6,{0qd.AL@uuuuOOuuu%DSJ              Ahd|hxjm6,{!0qd.hd",
"e&g8nc~h8%3hf]^eAL@uOOOOOOOO%DSL              A&gnc~h8%3h%f]^e&g",
"x!hth#g*p1Fgg&oxAJ@<<<<<<<<<%DSL              A!hh#g*p1Fgpg&ox!h",
".+@#+$%&*#=-+;>.AE@@OOOOOOOO@DSL              A+@+$%&*#=-,+;>.+@",
"')!~-{]^/(,_:<['AE@@@@@@@@@@@DSE              A)!-{]^/(,_::<[')!",
"}.|12.345(,67[8}AE@@@@@@@@@@@DSE              A.|2.345(,697[8}.|"};
