/* XPM */
static char * flower_xpm[] = {
"64 64 128 2",
"  	c #7C5B7C",
". 	c #5C355C",
"+ 	c #5B345B",
"@ 	c #562E56",
"# 	c #472147",
"$ 	c #634562",
"% 	c #634561",
"& 	c #5C365C",
"* 	c #987B98",
"= 	c #997C99",
"- 	c #7D5C7D",
"; 	c #7B5A7B",
"> 	c #482148",
", 	c #482248",
"' 	c #573057",
") 	c #583058",
"! 	c #572F57",
"~ 	c #7C5A7C",
"{ 	c #977A97",
"] 	c #583158",
"^ 	c #5B365B",
"/ 	c #5B375B",
"( 	c #603B60",
"_ 	c #603C60",
": 	c #411B41",
"< 	c #401A40",
"[ 	c #401B40",
"} 	c #431E43",
"| 	c #431F43",
"1 	c #482348",
"2 	c #EBD3EB",
"3 	c #EDD5ED",
"4 	c #987A98",
"5 	c #EED6EE",
"6 	c #492449",
"7 	c #4A244A",
"8 	c #4A254A",
"9 	c #603E60",
"0 	c #EED7EE",
"a 	c #644264",
"b 	c #7D5D7D",
"c 	c #552E55",
"d 	c #3B153B",
"e 	c #3A143A",
"f 	c #3D193D",
"g 	c #9F769F",
"h 	c #A077A0",
"i 	c #A279A2",
"j 	c #ECD3EC",
"k 	c #FBF2FD",
"l 	c #FBF3FE",
"m 	c #ECD4EC",
"n 	c #AC8BAC",
"o 	c #AA89AA",
"p 	c #A178A1",
"q 	c #A37AA3",
"r 	c #AC8CAC",
"s 	c #AB8AAB",
"t 	c #492549",
"u 	c #5D375D",
"v 	c #5E395E",
"w 	c #442844",
"x 	c #432443",
"y 	c #422442",
"z 	c #452745",
"A 	c #A078A0",
"B 	c #A37BA3",
"C 	c #EED7EF",
"D 	c #EDD6ED",
"E 	c #9B7E9B",
"F 	c #9A7D9A",
"G 	c #513251",
"H 	c #4F304F",
"I 	c #4E2F4F",
"J 	c #5B355B",
"K 	c #5A335A",
"L 	c #A988A9",
"M 	c #F8F0FB",
"N 	c #F9F1FC",
"O 	c #AD8CAD",
"P 	c #FAF1FD",
"Q 	c #AD8DAD",
"R 	c #5C395C",
"S 	c #FAF2FD",
"T 	c #AE8FAE",
"U 	c #AD8DAE",
"V 	c #614262",
"W 	c #492349",
"X 	c #D6BBD6",
"Y 	c #D5BAD5",
"Z 	c #D7BCD7",
"` 	c #613E61",
" .	c #603E61",
"..	c #AE8EAE",
"+.	c #634461",
"@.	c #A47CA4",
"#.	c #A179A1",
"$.	c #AB8BAB",
"%.	c #AE8DAE",
"&.	c #5F395F",
"*.	c #D7BDD7",
"=.	c #AB89AB",
"-.	c #A27AA2",
";.	c #5A345A",
">.	c #D4B9D4",
",.	c #5F3A5F",
"'.	c #7E5D7E",
").	c #7E5E7E",
"!.	c #816282",
"~.	c #D5B9D5",
"{.	c #7F6080",
"].	c #7F5F7F",
"^.	c #F9F0FC",
"/.	c #FBF2FE",
"(.	c #7F607F",
"_.	c #4B274B",
":.	c #5E385E",
"<.	c #4A264A",
"[.	c #ECD5EC",
"}.	c #4E2D4E",
"|.	c #4E2C4E",
"1.	c #4C2A4C",
"2.	c #513151",
"3.	c #5E3A5E",
"4.	c #D3B8D3",
"5.	c #D5BBD5",
"6.	c #5A355A",
"7.	c #684C66",
"        . + + + @ @ @ @ # # # # @ @ @ @ @ @ @ @ + + + .         $ % % $         . + + + + + + & * = = = = = = = = = = = -       ",
"        . + + + @ @ @ @ # # # # @ @ @ @ @ @ @ @ + + + .         $ % % $         . + + + + + + & * = = = = = = = = = = = -       ",
"        . + + + @ @ @ @ # # # # @ @ @ @ @ @ @ @ + + + .         $ % % $         . + + + + + + & * = = = = = = = = = = = -       ",
"      ; & . . . @ @ @ @ > # # , ' ) ) ) ! ! ! ! + + + . ; ~ ~ ; % % % % ;     ; . + + + + + + & { * * * * * * * * * * *         ",
". . . & ;     ; ! @ @ @ @ @ @ ' { * * *   ~ ~ ; ! @ @ @ ! ! ! ! + + + + . . . . + + + + + + + + ] ) ) ) ) ) ) ) ) ) ) ] . . . . ",
"+ + + .       ~ ! @ @ @ @ @ @ ) * = = = -     ~ ! @ @ @ @ @ @ @ + + + + + + + + + + + + + + + + @ @ @ @ @ @ @ @ @ @ @ @ + + + + ",
"+ + + .       ~ ! @ @ @ @ @ @ ) * = = = -     ~ ! @ @ @ @ @ @ @ + + + + + + + + + + + + + + + + @ @ @ @ @ @ @ @ @ @ @ @ + + + + ",
"+ + + .   - -   ! @ @ @ @ @ @ ' { * * *   ; ; ; ! @ @ @ ^ / / / ( _ _ ( + + + + . . . . & & & & @ @ @ @ @ @ @ @ @ @ @ @ + + + + ",
"+ + + & * = = * & + + + : < < [ } | | | 1 1 1 1 @ @ @ ^ 2 3 3 3 3 3 3 2 ( + + . ;       * * * 4 & + + + @ @ @ @ : < < : @ @ @ @ ",
"+ + + & * = = * & + + + : < < < < < < < # # # # @ @ @ / 3 5 5 5 5 5 5 3 _ + + .       - = = = * & + + + @ @ @ @ < < < < @ @ @ @ ",
"+ + + & * = = * & + + + : < < < < < < < # # # # @ @ @ / 3 5 5 5 5 5 5 3 _ + + .       - = = = * & + + + @ @ @ @ < < < < @ @ @ @ ",
"+ + + & * = = * & + + + [ < < < < < < < 6 7 7 8 ^ / / 9 3 0 0 0 0 0 0 3 a _ _ _ - - - b = = = * & + + + @ @ @ c < < < < @ @ @ @ ",
"+ + + & * = = * & + + + d e e e e e e f g h h i j 3 3 3 k l l l l l l k 3 3 3 m n o o o = = = * 8 # # # : < < < < < < : + + + + ",
"+ + + & * = = * & + + + d e e e e e e f h p p q 3 5 5 0 l l l l l l l l 0 5 5 3 r s s s = = = * t # # # < < < < < < < : + + + + ",
"+ + + & * = = * & + + + d e e e e e e f h p p q 3 5 5 0 l l l l l l l l 0 5 5 3 r s s s = = = * t # # # < < < < < < < : + + + + ",
". . . u { * * { v u u u w w w w x y y z A p p B 3 0 0 C l l l l l l l l C 0 0 D r s s s E E E F G H H I : < < < < < < : J . . . ",
"      ; ] ) ) K L o o r M N N N 3 m m m n s s O P l l l l l l l l l l l l l l P Q s s r m 3 3 3 N N N M R @ @ c # # # 1 ;       ",
"      ~ ! @ @ ] o s s Q S l l l 0 5 5 3 r s s Q S l l l l l l l l l l l l l l S Q s s r 3 5 5 0 l l l N R @ @ @ # # # 1 ;       ",
"      ~ ! @ @ ] o s s Q S l l l 0 5 5 3 r s s Q S l l l l l l l l l l l l l l S Q s s r 3 5 5 0 l l l N R @ @ @ # # # 1 ;       ",
"~ ~ ~ ; ! @ @ ] r Q Q T S l l l 0 5 5 3 Q n n U S l l l l l l l l l l l l l l S U n n Q 3 5 5 0 l l l N V R R R , # # W ;       ",
"! ! ! ! @ @ @ R M S S S l l l l 0 5 5 5 X Y Y X S l l l l l l l l l l l l l l S X Y Y X 5 5 5 0 l l l l N N N M 9 + + J         ",
"@ @ @ @ @ @ @ R N l l l l l l l 0 5 5 5 X X X Z S l l l l l l l l l l l l l l S Z X X X 5 5 5 0 l l l l l l l N ` + + .         ",
"@ @ @ @ @ @ @ R N l l l l l l l 0 5 5 5 X X X Z S l l l l l l l l l l l l l l S Z X X X 5 5 5 0 l l l l l l l N ` + + .         ",
"@ @ @ @ @ @ @ R N l l l l l l l D 3 3 3 X X X Z S l l l l l l l l l l l l l l S Z X X X 3 3 3 D l l l l l l l N  .+ + . ;       ",
"+ + + + @ @ @ / 3 0 0 C l l l S ..r r Q Y X X X 5 0 0 C l l l l l l l l C 0 0 5 X X X Y Q r r ..S l l l C 0 0 3 / @ @ @ . . . . ",
"+ + + + @ @ @ / 3 5 5 0 l l l S Q s s n Y X X X 5 5 5 0 l l l l l l l l 0 5 5 5 X X X Y n s s Q S l l l 0 5 5 3 / @ @ @ + + + + ",
"+ + + + @ @ @ / 3 5 5 0 l l l S Q s s n Y X X X 5 5 5 0 l l l l l l l l 0 5 5 5 X X X Y n s s Q S l l l 0 5 5 3 / @ @ @ + + + + ",
"+ + + + @ @ @ ^ 2 3 3 3 k l l P U n n O Y Y Y X 3 3 3 3 k l l l l l l k 3 3 3 3 X Y Y Y O n n U P l l k 3 3 3 2 / @ @ @ + + + + ",
"% % % +.@ @ @ @ ^ / / 9 3 0 0 5 X Y Y Y O n n n B q q @.3 0 0 0 0 0 0 3 @.q q B n n n O Y Y Y X 5 0 0 3 a _ _ ( + + + + % % % % ",
"% % % % @ @ @ @ @ @ @ / 3 5 5 5 X X X Y n s s s p p p q 3 5 5 5 5 5 5 3 q p p p s s s n Y X X X 5 5 5 3 _ + + + + + + + % % % % ",
"% % % % @ @ @ @ @ @ @ / 3 5 5 5 X X X Y n s s s p p p q 3 5 5 5 5 5 5 3 q p p p s s s n Y X X X 5 5 5 3 _ + + + + + + + % % % % ",
"% % % +.@ @ @ @ @ @ @ / m 3 3 3 Z X X X O n n n #.p p B m 3 3 3 3 3 3 m B p p #.n n n O X X X Z 3 3 3 m ( + + + + + + J % % % % ",
"+ + + + @ @ @ @ + + + u $.r r %.3 5 5 3 X Y Y Y n s s s B q q B n r r r s s s n Y Y Y X 3 5 5 3 %.r r $.u + + + % % % % J + + + ",
"+ + + + @ @ @ @ + + + u o s s r 3 5 5 5 X X X Y n s s s p p p p s s s s s s s n Y X X X 5 5 5 3 r s s o u + + + % % % % + + + + ",
"+ + + + @ @ @ @ + + + u o s s r 3 5 5 5 X X X Y n s s s p p p p s s s s s s s n Y X X X 5 5 5 3 r s s o u + + + % % % % + + + + ",
". . . . @ @ @ @ u u u &.r Q Q ..D 0 0 5 *.Z Z X O n n n p p p p =.s s s n n n O X Z Z *.5 0 0 D ..Q Q r &.u u u % % % % + + + + ",
"      ; ! @ @ ] L o o r N S S S l l l l S S S P X Y Y Y i p p p p p p -.Y Y Y X P S S S l l l l S S S N r o o L u + + + + + + + ",
"      ~ ! @ @ ] o s s Q S l l l l l l l l l l S Z X X Y i p p p p p p i Y X X Z S l l l l l l l l l l S Q s s o u + + + + + + + ",
"      ~ ! @ @ ] o s s Q S l l l l l l l l l l S Z X X Y i p p p p p p i Y X X Z S l l l l l l l l l l S Q s s o u + + + + + + + ",
"      ; ! @ @ ] s n n U S l l l l l l l l l l S *.X X X -.p p p p p p i X X X *.S l l l l l l l l l l S U n n s u + + + + + + + ",
". . . . @ @ @ ;.>.Y Y X S l l l l l l l l l l l 5 5 5 3 n s s =.p p p q 3 5 5 5 l l l l l l l l l l l S X Y Y >.,.+ + + % % % % ",
"+ + + + @ @ @ ;.Y X X Z S l l l l l l l l l l l 0 5 5 3 r s s s p p p q 3 5 5 0 l l l l l l l l l l l S Z X X Y ,.+ + + % % % % ",
"+ + + + @ @ @ ;.Y X X Z S l l l l l l l l l l l 0 5 5 3 r s s s p p p q 3 5 5 0 l l l l l l l l l l l S Z X X Y ,.+ + + % % % % ",
"+ + + + @ @ @ ;.>.Y Y X S l l l l l l l l l l k 3 3 3 m Q n n n -.i i @.m 3 3 3 k l l l l l l l l l l S X Y Y >.,.+ + + % % % % ",
"+ + + + @ @ @ ! '.).).!.P l l l l l l l C 0 0 3 @.q q @.Y Y Y Y Y Y Y ~.@.q q @.3 0 0 C l l l l l l l P !.).).'.. + + + + + + + ",
"+ + + + @ @ @ ! ~     {.P l l l l l l l 0 5 5 3 q p p i Y X X X X X X Y i p p q 3 5 5 0 l l l l l l l P {.      . + + + + + + + ",
"+ + + + @ @ @ ! ~     {.P l l l l l l l 0 5 5 3 q p p i Y X X X X X X Y i p p q 3 5 5 0 l l l l l l l P {.      . + + + + + + + ",
"+ + + + @ @ @ ! ; ; ; ].^.S S S l l l /.5 5 5 3 @.q q @.X Z Z Z Z Z Z X @.q q @.3 5 5 5 /.l l l S S S ^.(.    ; . + + + + + + + ",
"@ @ @ @ @ @ @ @ 1 1 1 _.r Q Q ..D 0 0 5 Z X X Z 3 3 3 3 S S S S S S S S 3 3 3 3 Z X X Z 5 0 0 D ..Q Q r :.. . . @ @ @ @ @ @ @ @ ",
"@ @ @ @ @ @ @ @ # # # <.o s s r 3 5 5 5 X X X X 5 5 5 0 l l l l l l l l 0 5 5 5 X X X X 5 5 5 3 r s s o u + + + @ @ @ @ @ @ @ @ ",
"@ @ @ @ @ @ @ @ # # # <.o s s r 3 5 5 5 X X X X 5 5 5 0 l l l l l l l l 0 5 5 5 X X X X 5 5 5 3 r s s o u + + + @ @ @ @ @ @ @ @ ",
"@ @ @ @ @ @ @ @ > # # <.L o o $.m [.[.m Y Y Y Y 3 5 5 5 l l l l l l l l 5 5 5 3 Y Y Y Y m 3 3 m $.o o L u + + + @ @ @ @ @ @ @ @ ",
"+ + + + @ @ @ @ @ @ @ @ ] ] ] ] }.|.|.|.1.1.1.2.Y X X *.S l l l l l l S *.X X Y 3.;.;.;.( _ _ ( u u u u @ @ @ @ + + + + + + + + ",
"+ + + + @ @ @ @ @ @ @ @ @ @ @ @ # # # # # # # 1.Y X X Z S l l l l l l S Z X X Y ;.@ @ @ + + + + + + + + @ @ @ @ + + + + + + + + ",
"+ + + + @ @ @ @ @ @ @ @ @ @ @ @ # # # # # # # 1.Y X X Z S l l l l l l S Z X X Y ;.@ @ @ + + + + + + + + @ @ @ @ + + + + + + + + ",
"+ + + + @ @ @ @ @ @ @ @ ) ) ) ' 8 t t t # # # 1.4.Y Y 5.N N N N N N N N 5.Y Y 4.;.@ @ @ + + + + + + + + @ @ @ @ + + + + & & & & ",
"+ + + + + + + + + + + & { * * * * * * { & + + + ;.;.;.6. .` ` ` 7.7.7.7.,.,.,.v , # # > @ @ @ @ @ @ @ @ + + + + + + + & 4 * * * ",
"+ + + + + + + + + + + & * = = = = = = * & + + + @ @ @ @ + + + + % % % % + + + + # # # # @ @ @ @ @ @ @ @ + + + + + + + & * = = = ",
"+ + + + + + + + + + + & * = = = = = = * & + + + @ @ @ @ + + + + % % % % + + + + # # # # @ @ @ @ @ @ @ @ + + + + + + + & * = = = ",
"& & & & & & & & . . . u { * * * * * * { u . . . ] ) ) ] + + + + % $ $ % + + + + , # # , @ @ @ @ @ @ @ @ + + + + + + + & * = = = ",
"* * * * * * * *       ; ] ) ) ) ) ) ) ] ;       * * * { ] @ @ ! ;     ; . + + + + + + + @ @ @ @ + + + + + + + + + + + & * = = = ",
"= = = = = = = = -     ~ ! @ @ @ @ @ @ ! ~     - = = = * ) @ @ ! ~       . + + + + + + + @ @ @ @ + + + + + + + + + + + & * = = = ",
"= = = = = = = = -     ~ ! @ @ @ @ @ @ ! ~     - = = = * ) @ @ ! ~       . + + + + + + + @ @ @ @ + + + + + + + + + + + & * = = = ",
"= = = = = = = = -     ~ ! @ @ @ @ @ @ ! ~     - = = = * ) @ @ ! ~       . + + + + + + + @ @ @ @ + + + + + + + + + + + & * = = = "};
