/* XPM */
static char * Quartz_Bricks_(texture)_JE2_BE2_xpm[] = {
"64 64 14 1",
" 	c #F2EFED",
".	c #EAE2DA",
"+	c #EEEAE6",
"@	c #EEE6DE",
"#	c #EAE2DB",
"$	c #E2DED1",
"%	c #E2DED0",
"&	c #DDD9CB",
"*	c #F2EFEC",
"=	c #EEEAE5",
"-	c #DDD9CC",
";	c #F2EEEC",
">	c #F1EEEC",
",	c #EDE9E5",
"                                                            ....",
"                                                            ....",
"                                                            ....",
"                                                            ....",
"    ++++@@@@@@@@@@@@@@@@...................#++++++++++++++++$%%%",
"    ++++@@@@@@@@@@@@@@@@....................++++++++++++++++%%%%",
"    ++++@@@@@@@@@@@@@@@@....................++++++++++++++++%%%%",
"    ++++@@@@@@@@@@@@@@@@....................++++++++++++++++%%%%",
"    @@@@@@@@........................@@@@++++++++++++++++@@@@&&&&",
"    @@@@@@@@........................@@@@++++++++++++++++@@@@&&&&",
"    @@@@@@@@........................@@@@++++++++++++++++@@@@&&&&",
"    @@@@@@@@........................@@@@++++++++++++++++@@@@&&&&",
"++++....................@@@@@@@@++++++++++++@@@@@@@@@@@@@@@@&&&&",
"++++....................@@@@@@@@++++++++++++@@@@@@@@@@@@@@@@&&&&",
"++++....................@@@@@@@@++++++++++++@@@@@@@@@@@@@@@@&&&&",
"++++....................@@@@@@@@++++++++++++@@@@@@@@@@@@@@@@&&&&",
"++++....@@@@@@@@@@@@@@@@............@@@@@@@@................%%%%",
"++++....@@@@@@@@@@@@@@@@............@@@@@@@@................%%%%",
"++++....@@@@@@@@@@@@@@@@............@@@@@@@@................%%%%",
"++++....@@@@@@@@@@@@@@@@............@@@@@@@@................%%%%",
"    @@@@@@@@....................@@@@@@@@....................%%%%",
"    @@@@@@@@....................@@@@@@@@....................%%%%",
"    @@@@@@@@....................@@@@@@@@....................%%%%",
"    @@@@@@@@....................@@@@@@@@....................%%%%",
"    @@@@@@@@@@@@++++++++++++++++................@@@@@@@@@@@@&&&&",
"    @@@@@@@@@@@@++++++++++++++++................@@@@@@@@@@@@&&&&",
"    @@@@@@@@@@@@++++++++++++++++................@@@@@@@@@@@@&&&&",
"   *@@@@@@@@@@@@=++++++++++++++=................@@@@@@@@@@@@&&&&",
"----%%%%%%%%%%%%-&&&&&&&&&&-%%%%%%%%&&&&&&&&&&&&&&&&&&&&%%%%%%%%",
"&&&&%%%%%%%%%%%%&&&&&&&&&&&&%%%%%%%%&&&&&&&&&&&&&&&&&&&&%%%%%%%%",
"&&&&%%%%%%%%%%%%&&&&&&&&&&&&%%%%%%%%&&&&&&&&&&&&&&&&&&&&%%%%%%%%",
"----%$$$$$$%%%%%------------%$$$%%%%----&&&&&&&&----&&&-%$$$$$$$",
"           ;%%%%>              *++++*  *+++,&&&->  *++++*       ",
"            $%%$                ++++    ++++&&&-    ++++        ",
"            $%%$                ++++    ++++&&&-    ++++        ",
"           *$%%$                ++++    +++=&&&-    ++++        ",
"....@@@@++++%%%$    ++++++++++++++++++++@@@@&&&-    @@@@@@@@....",
"....@@@@++++%%%$    ++++++++++++++++++++@@@@&&&-    @@@@@@@@....",
"....@@@@++++%%%$    ++++++++++++++++++++@@@@&&&-    @@@@@@@@....",
"....@@@@++++%%%%    ++++++++++++++++++++@@@@&&&-    @@@@@@@@....",
"++++++++++++-&&-    ++++@@@@................%%%%    ++++++++++++",
"++++++++++++&&&-    ++++@@@@................%%%$    ++++++++++++",
"++++++++++++&&&-    ++++@@@@................%%%$    ++++++++++++",
"+++++++++++=&&&-    ++++@@@@................%%%%    ++++++++++++",
"++++++++@@@@&&&-    #...................+++=-&&-    ++++++++++++",
"++++++++@@@@&&&-    ....................++++&&&-    ++++++++++++",
"++++++++@@@@&&&-    ....................++++&&&-    ++++++++++++",
"++++++++@@@@&&&-*   ....................++++&&&-    ++++++++++++",
"@@@@@@@@....&&&&++++....@@@@@@@@++++++++++++&&&-    ++++++++++++",
"@@@@@@@@....&&&&++++....@@@@@@@@++++++++++++&&&-    ++++++++++++",
"@@@@@@@@....&&&&++++....@@@@@@@@++++++++++++&&&-    ++++++++++++",
"@@@@@@@@....&&&&++++....@@@@@@@@+++++++++++=&&&-    ++++++++++++",
"........@@@@&&&-*   ++++++++++++++++++++@@@@&&&-    @@@@@@@@@@@@",
"........@@@@&&&-    ++++++++++++++++++++@@@@&&&-    @@@@@@@@@@@@",
"........@@@@&&&-    ++++++++++++++++++++@@@@&&&-    @@@@@@@@@@@@",
"........@@@@&&&-*   ++++++++++++++++++++@@@@&&&-*   @@@@@@@@@@@@",
"@@@@@@@@+++=&&&&++++++++++++@@@@@@@@@@@@@@@@%%%%++++....@@@@....",
"@@@@@@@@++++&&&&++++++++++++@@@@@@@@@@@@@@@@%%%%++++....@@@@....",
"@@@@@@@@++++&&&&++++++++++++@@@@@@@@@@@@@@@@%%%%++++....@@@@....",
"@@@@@@@@+++=&&&&=+++++++++++@@@@@@@@@@@@@@@@%%%%=++=....@@@@....",
"&&&&%%%%%%%%&&&&%%%%%%%%%%%%%%%%&&&&&&&&&&&&&&&&%%%%%%%%&&&&&&&&",
"&&&&%%%%%%%%&&&&%%%%%%%%%%%%%%%%&&&&&&&&&&&&&&&&%%%%%%%%&&&&&&&&",
"&&&&%%%%%%%%&&&&%%%%%%%%%%%%%%%%&&&&&&&&&&&&&&&&%%%%%%%%&&&&&&&&",
"&&&&%%%%%%%%&&&&%%%%%%%%%%%%%%%%&&&&&&&&&&&&&&&&%%%%%%%%&&&&&&&&"};
