/* XPM */
static char * cross_xpm[] = {
"48 48 2 1",
" 	c None",
".	c #FFFFFF",
"                                                ",
"                                                ",
"                                                ",
"                                                ",
"                                                ",
"                                                ",
"                                                ",
"                                                ",
"                                                ",
"                                                ",
"                      ...                       ",
"                      ...                       ",
"                      ...                       ",
"                      ...                       ",
"                      ...                       ",
"                      ...                       ",
"                      ...                       ",
"                      ...                       ",
"                      ...                       ",
"                      ...                       ",
"                      ...                       ",
"                      ...                       ",
"          ...........................           ",
"          ...........................           ",
"          ...........................           ",
"                      ...                       ",
"                      ...                       ",
"                      ...                       ",
"                      ...                       ",
"                      ...                       ",
"                      ...                       ",
"                      ...                       ",
"                      ...                       ",
"                      ...                       ",
"                      ...                       ",
"                      ...                       ",
"                      ...                       ",
"                                                ",
"                                                ",
"                                                ",
"                                                ",
"                                                ",
"                                                ",
"                                                ",
"                                                ",
"                                                ",
"                                                ",
"                                                "};
