/* XPM */
static char * gold_xpm[] = {
"64 64 130 2",
"  	c #888888",
". 	c #A8A8A8",
"+ 	c #AEAEAE",
"@ 	c #818181",
"# 	c #767676",
"$ 	c #929292",
"% 	c #7D7D7D",
"& 	c #999999",
"* 	c #C3C3C3",
"= 	c #A1A1A1",
"- 	c #9B9B9B",
"; 	c #A0A0A0",
"> 	c #939393",
", 	c #9D9D9D",
"' 	c #8B8B8B",
") 	c #797979",
"! 	c #A3A3A3",
"~ 	c #C0C0C0",
"{ 	c #7B7B7B",
"] 	c #B3B3B3",
"^ 	c #ABABAB",
"/ 	c #949494",
"( 	c #7E7E7E",
"_ 	c #959595",
": 	c #878787",
"< 	c #A9A9A9",
"[ 	c #909090",
"} 	c #9E9E9E",
"| 	c #858585",
"1 	c #969696",
"2 	c #898989",
"3 	c #A4A4A4",
"4 	c #989898",
"5 	c #8E8E8E",
"6 	c #7C7C7C",
"7 	c #848484",
"8 	c #BFBFBF",
"9 	c #A7A7A7",
"0 	c #707070",
"a 	c #8D8D8D",
"b 	c #868686",
"c 	c #8F8F8F",
"d 	c #7F7F7F",
"e 	c #8C8C8C",
"f 	c #8A8A8A",
"g 	c #979797",
"h 	c #808080",
"i 	c #828282",
"j 	c #A6A6A6",
"k 	c #777777",
"l 	c #B6B6B6",
"m 	c #ADADAD",
"n 	c #9F9F9F",
"o 	c #919191",
"p 	c #838383",
"q 	c #A2A2A2",
"r 	c #ACACAC",
"s 	c #BABABA",
"t 	c #757575",
"u 	c #787878",
"v 	c #9C9C9C",
"w 	c #A5A5A5",
"x 	c #B5B5B5",
"y 	c #AAAAAA",
"z 	c #7A7A7A",
"A 	c #6B6C71",
"B 	c #FBC52D",
"C 	c #E49721",
"D 	c #F2B327",
"E 	c #8C8C92",
"F 	c #9F9FA5",
"G 	c #FFCC2F",
"H 	c #7C7C81",
"I 	c #838389",
"J 	c #717177",
"K 	c #7B7B81",
"L 	c #7A7A80",
"M 	c #76767C",
"N 	c #5E5E63",
"O 	c #6F7075",
"P 	c #A1A1A7",
"Q 	c #65656D",
"R 	c #5E5E66",
"S 	c #84848A",
"T 	c #75757B",
"U 	c #7D7E83",
"V 	c #737378",
"W 	c #64646A",
"X 	c #71717A",
"Y 	c #F8BF2B",
"Z 	c #FECB2E",
"` 	c #8E8F94",
" .	c #818287",
"..	c #B7B7B7",
"+.	c #98989D",
"@.	c #74757A",
"#.	c #797A7F",
"$.	c #8B8B91",
"%.	c #727278",
"&.	c #67686D",
"*.	c #88888E",
"=.	c #6A6A70",
"-.	c #6B6B70",
";.	c #8F8F95",
">.	c #6C6C75",
",.	c #818189",
"'.	c #7C7C84",
").	c #7D7D82",
"!.	c #65666E",
"~.	c #69696F",
"{.	c #6D6D73",
"].	c #676770",
"^.	c #96969C",
"/.	c #828288",
"(.	c #97979C",
"_.	c #8D8D93",
":.	c #6C6C72",
"<.	c #FDC82E",
"[.	c #65656B",
"}.	c #707179",
"|.	c #85858A",
"1.	c #626368",
"2.	c #707076",
"3.	c #7F7F85",
"4.	c #87878D",
"5.	c #77777D",
"6.	c #7F8088",
"7.	c #7F7F87",
"8.	c #818186",
"9.	c #7E7E84",
"  . + @ . # $ % & @ * = . - ;   . + @ . # $ % & @ * = > . - ; . + @ . # $ % & @ * = > . - ;   . + . # $ % & @ * = > . - ;   . + ",
", ' ) ! = ~ { ] ^ / > ( _ : < , ' ) ! = ~ { ] ^ / > ( _ _ : < ' ) ! = ~ { ] ^ / > ( _ _ : < , ' ) = ~ { ] ^ / > ( _ _ : < , ' ) ",
"[   } | 1   2 3 4 / > 5 6 < 7 [   } | 1   2 3 4 / > 5 8 6 < 7   } | 1   2 3 4 / > 5 8 6 < 7 [   } 1   2 3 4 / > 5 8 6 < 7 [   } ",
"9 0 a / * > b b c d e } f : 2 9 0 a / * > b b c d e } 1 f : 2 0 a / * > b b c d e } 1 f : 2 9 0 a * > b b c d e } 1 f : 2 9 0 a ",
"e : ' _ e ; g & h & i d j > * e : ' _ e ; g & h & i d < j > * : ' _ e ; g & h & i d < j > * e : ' e ; g & h & i d < j > * e : ' ",
"k h l ! a % 7 2   [ [ / . m : k h l ! a % 7 2   [ [ / n . m : h l ! a % 7 2   [ [ / n . m : k h l a % 7 2   [ [ / n . m : k h l ",
"' 9 % # | f g o & % $ d a g c ' 9 % # | f g o & % $ d p a g c 9 % # | f g o & % $ d p a g c ' 9 % | f g o & % $ d p a g c ' 9 % ",
"(   a q p m p r +   r s h 9 ^ (   a q p m p r +   r s t h 9 ^   a q p m p r +   r s t h 9 ^ (   a p m p r +   r s t h 9 ^ (   a ",
"  5 / & 4 u j @ 1 _ - :   p u   5 / & 4 u j @ 1 _ - : _   p u 5 / & 4 u j @ 1 _ - : _   p u   5 / 4 u j @ 1 _ - : _   p u   5 / ",
"9 g c ( v w [ $ p f d 7 x r o 9 g c ( v w [ $ p f d 7 : x r o g c ( v w [ $ p f d 7 : x r o 9 g c v w [ $ p f d 7 : x r o 9 g c ",
"; d < c : , ' [ 6 3 7 g : @ c ; d < c : , ' [ 6 3 7 g m : @ c d < c : , ' [ 6 3 7 g m : @ c ; d < : , ' [ 6 3 7 g m : @ c ; d < ",
"> } ( 9 - l y r @ m v ] i $ | > } ( 9 - l y r @ m v ] y i $ | } ( 9 - l y r @ m v ] y i $ | > } ( - l y r @ m v ] y i $ | > } ( ",
"  g c - } g w i l 5 > ~ 9 p c   g c - } g w i l 5 > ~ ) 9 p c g c - } g w i l 5 > ~ ) 9 p c   g c } g w i l 5 > ~ ) 9 p c   g c ",
"d % f 7 m b ! g 7 $ 2 g e { ] d % f 7 m b ! g 7 $ 2 g $ e { ] % f 7 m b ! g 7 $ 2 g $ e { ] d % f m b ! g 7 $ 2 g $ e { ] d % f ",
"w ) g s g @ f & o | z f f % n w ) g s g @ f & o | z f o f % n ) g s g A f & o | z f o f % n w ) g g @ f & o | z f o f % n w ) g ",
"  . + @ . # $ % & @ * = . - ;   . + @ . # $ % & @ * = > . B C . + @ . # $ % & @ C C > . - ;   . + . # $ % & @ * = > . - ;   . + ",
", ' ) ! = ~ { ] ^ / > ( _ : < , ' ) ! = ~ { ] ^ / > ( _ _ D E ' ) ! = F { ] ^ C G G H _ : < , ' ) = ~ { ] ^ / > ( _ _ : < , ' ) ",
"[   } | 1   2 3 4 / > 5 6 < 7 [   } | 1   2 3 4 / > 5 8 6 < 7   I C C J 2 3 4 K L M 8 6 < 7 [   } 1   2 3 4 / > 5 8 6 < 7 [   } ",
"9 0 a / * > b b c d e } f : 2 9 0 a / * > b b c d e } 1 f : 2 N G C G C O b c d e } 1 f : 2 9 0 a * > b b c d e } 1 f : 2 9 0 a ",
"e : ' _ e ; g & h & i d j > * e : ' _ e ; g & h & i d < j > P Q C G G G C & h & i d < j > * e : ' e ; g & h & i d < j > * e : ' ",
"k h l ! a % 7 2   [ [ / . m : k h l ! a % 7 2   [ [ / n . m : h C G G R 7 2   [ [ G S . m : k h l a % 7 2   [ [ / n . m : k h l ",
"' 9 % # | f g o & % $ d a g c ' 9 % # | f g o & % $ d p T U c 9 R C C V g o & % $ G C a g c ' 9 % | f g o & % $ d p a g c ' 9 % ",
"(   a q p m p r +   r s h 9 ^ (   a q p m p r +   r s D B C ^   a C C m p r +   r s t h 9 ^ (   a p m p r +   r s t h 9 ^ (   a ",
"  5 / & 4 u j @ 1 _ - :   p u   5 / & 4 u j @ 1 _ - : _   C W 5 / & X u j @ 1 _ - : _   p u   5 / 4 u j @ 1 _ - : _   p u   5 / ",
"9 g c ( v w [ $ p f d 7 x r o 9 g c ( v w [ $ p f d 7 : x r D U c ( v w [ D B C d 7 : x r o 9 g c v w [ $ p f d 7 : x r o 9 g c ",
"; d < c : , ' [ 6 3 7 g : @ c ; d < c : , ' [ 6 3 7 g m : @ c d < c : , Y Z Y C 7 g m : @ c ; d < : , ' [ 6 3 7 g m : @ c ; d < ",
"> } ( 9 - l y r @ m v ] i $ | > } ( 9 - l y r @ m v ] y i $ | } ( 9 - D C ` A m  .] y i $ | > } ( - l y r @ m v ] y i $ | > } ( ",
"] c @ g i ..a e 4 y h : $ < 5 ] c @ g i ..a e 4 y h : o $ < 5 c @ g i +.T e 4 y h : o $ < 5 ] c @ i ..a e 4 y h : o $ < 5 ] c @ ",
"  g c - } g w i l 5 > ~ 9 p c   g c - } g w i l 5 > ~ ) 9 p c g c - } g w i l 5 > ~ ) 9 p c   g c } g w i l 5 > ~ ) 9 p c   g c ",
"d % f 7 m b ! g 7 $ 2 g e { ] d % f 7 m b ! g 7 $ 2 g $ e { ] % f 7 m b ! g 7 $ 2 g $ @.{ ] d % f m b ! g 7 $ 2 g $ e { ] d % f ",
"  . + @ . # $ % & @ * = . - ;   . + @ . # $ % & @ * = > . - ; . + @ C D #.% & @ * = L $.- ;   . + . C $ % & @ * = > . - ;   . + ",
", ' ) ! = ~ { ] ^ / > ( _ : < , ' ) ! = ~ { ] ^ / > ( _ _ : < ' ) ! B D C ] ^ / > ( C _ : < , ' ) C G C ] ^ / > ( _ _ : < , ' ) ",
"[   } | 1   2 3 4 / > 5 6 < 7 [   } | 1   2 3 4 / > 5 8 6 < 7   } | D C %.3 4 / > 5 C &.< 7 [   C G G G *.4 / > 5 8 6 < 7 [   } ",
"9 0 a / * > b b c d e } f : 2 9 0 a / * > b b c d e } 1 f : 2 0 a / * L b b c =.C C C V : 2 9 0 T P L O b c d e } 1 f : 2 9 0 a ",
"e : ' _ e ; g & h & i d j > * e : ' _ e ; g & h & i d < j > * : ' _ e ; g & -.C G C G C L * e : ' e ; g & h & i d < j > * e : ' ",
"k h l ! a % 7 2   [ [ / . m : k h l ! a % 7 2   [ [ / n . m : h l ! a % 7 %.G G C G G C ;.: k h l a % 7 2   [ [ / n . m : k h l ",
"' 9 % # | f g o & % $ d a g c ' 9 % # | f g o & % $ d p a g c 9 % # | f U >.C C G G G G C c ' 9 % | f g o & % $ d p a g c ' 9 % ",
"(   a q p m p r +   r s h 9 ^ (   a q p m p r +   r s t h 9 ^   a q p m p ` ,.C G G C C '.^ (   a p m p r +   r s t h 9 ^ (   a ",
"  5 / & 4 u j @ 1 _ - :   p u   5 / & 4 u j @ 1 _ - : _   p u 5 / & 4 u j @ ).C G G C !.p u   5 / 4 u G A 1 _ - : _   p u   5 / ",
"9 g c ( v w [ $ p f d 7 x r o 9 g c ( v w [ $ p f d 7 : x r o g c ~. .w [ $ {.].C C Q ^.r o 9 g c v C G C p f d 7 : x r o 9 g c ",
"; d < c : , ' [ 6 3 7 g : @ c ; d < c : , ' [ 6 3 7 g m : @ c d D B C /.' [ 6 3 C C ;.: @ c ; d < : , ' [ 6 3 7 g m : @ c ; d < ",
"> } ( 9 - l y r @ m v ] i $ | > } ( 9 - l y r @ m v ] y i $ | } C D Y (._.r @ m  .C _.i $ | > } ( - l y r @ m v ] y i $ | > } ( ",
"] c @ g i ..a e 4 y h : $ < 5 ] c @ g i ..a e 4 y h : o $ < 5 c @ g C Y T e 4 y h Q o $ < 5 ] c @ i ..a e 4 y h : o $ < 5 ] c @ ",
"  g c - } g w i l 5 > ~ 9 p c   g c - } g w i l 5 > ~ ) 9 p c g c - } C D :.l 5 > ~ ) 9 p D Y B C } g w i l 5 > ~ ) 9 p c   g c ",
"d % f 7 m b ! g 7 $ 2 g e { ] d % f 7 m b ! g 7 $ 2 g $ e { ] % f 7 m b ! g 7 $ 2 g $ e Y Z Z Y C m b ! g 7 $ 2 g $ e { ] d % f ",
"w ) g s g @ f & o | z f f % n w ) g s g @ f & o | z f o f % n ) g s g @ f & o | z f o C Z <.C [.}.C C V & o | z f o f % n w ) g ",
"  . + @ . # $ % & @ * = . - ;   . + @ . # $ % & @ * = > . - ; . + @ . # $ % & @ * = > D C |.J $.+ $.1.$ % & @ * = > . - ;   . + ",
", ' ) ! = ~ { ] ^ / > ( _ : < , ' ) ! = ~ { ] ^ / > ( _ _ : < ' ) ! = ~ { ] ^ / > ( _ H 2.< , ' ) = ~ { ] ^ / > ( _ _ : < , ' ) ",
"[   } | 1   2 3 C K > 5 6 E 7 [   } | 1   2 3 4 / > 5 8 6 < 7   } | 1   2 3 4 / > 5 8 6 < 7 [   } 1   2 3 4 / > 5 8 6 < 7 [   } ",
"e : ' _ e ; g & D 3.i d j C * e : G G @.; g & h & i d < j > * : ' _ e ; g & h & i d < j > * e : ' e ; g & h & i d < j > * e : ' ",
"k h l ! a % 7 2   [ [ K C C : k h (.4.a % 7 2   [ [ / n . m : h l ! a % 7 2   [ [ / n . m : k h l a % 7 2   [ [ / n . m : k h l ",
"' 9 % # | f g o & % G G G G 5.' 9 % # | f g o & % $ d p a g c 9 % # | f g o & % $ d p a g c ' 9 % | f g o & % $ d p a g c ' 9 % ",
"(   a q p m p r +   6.C G C 7.(   a q p m p r +   r s t h 9 ^   a q p m p r +   r s t h 9 ^ (   a p m p r +   r s t h 9 ^ (   a ",
"  5 / & 4 u j @ 1 _ 8.C G C u   5 / G 9.u j @ 1 _ - : _   p u 5 / & 4 u j @ 1 _ - : _   p u   5 / 4 u j @ 1 _ - : _   p u   5 / ",
"9 g c ( v w [ B C f d 7 C ` o 9 g c ( v w [ $ p f d 7 : x r o g c ( v w [ $ p f d 7 : x r o 9 g c v w [ $ p f d 7 : x r o 9 g c ",
"; d < c : , ' D Y *.7 g C A c ; d < c : , ' [ 6 3 7 g m : @ c d < c : , ' [ 6 3 7 g m : @ c ; d < : , ' [ 6 3 7 g m : @ c ; d < ",
"> } ( 9 - l y r @ D v ] i $ | Y B ( 9 - l y r @ m v ] y i $ | } ( 9 - l y r @ m v ] y i $ | > } ( - l y r @ m v ] y i $ | > } ( ",
"] c @ g i ..a e 4 y h : $ < Z C 5.C U i ..a e 4 y h : o $ < 5 c @ g i ..a e 4 y h : o $ < 5 ] c @ i ..a e 4 y h : o $ < 5 ] c @ ",
"  g c - } g w i l 5 > ~ 9 p C J U 5.- } g w i l 5 > ~ ) 9 p c g c - } g w i l 5 > ~ ) 9 p c   g c } g w i l 5 > ~ ) 9 p c   g c ",
"d % f 7 m b ! g 7 $ 2 g e { ] d % f 7 m b ! g 7 $ 2 g $ e { ] % f 7 m b ! g 7 $ 2 g $ e { ] d % f m b ! g 7 $ 2 g $ e { ] d % f ",
"w ) g s g @ f & o | z f f % n w ) g s g @ f & o | z f o f % n ) g s g @ f & o | z f o f % n w ) g g @ f & o | z f o f % n w ) g ",
"  . + @ . # $ % & @ * = . - ;   . + @ . # $ % & @ * = > . - ; . + @ . # $ % & @ * = > . - ;   . + . # $ % & @ * = > . - ;   . + ",
", ' ) ! = ~ { ] ^ / > ( _ : < , ' ) ! = ~ { ] ^ / > ( _ _ : < ' ) ! = ~ { ] ^ / > ( _ _ : < , ' ) = ~ { ] ^ / > ( _ _ : < , ' ) ",
"[   } | 1   2 3 4 / > 5 6 < 7 [   } | 1   2 3 4 / > 5 8 6 < 7   } | 1   2 3 4 / > 5 8 6 < 7 [   } 1   2 3 4 / > 5 8 6 < 7 [   } "};
