/* XPM */
static char * amethyst_xpm[] = {
"64 64 59 1",
" 	c #64479E",
".	c #7A5BB5",
"+	c #8D6ACC",
"@	c #7C5CB6",
"#	c #C78FEF",
"$	c #C890F0",
"%	c #C991F0",
"&	c #FDCAE6",
"*	c #FECBE6",
"=	c #A87AF1",
"-	c #A678F1",
";	c #A678F0",
">	c #8D6ACD",
",	c #8C6ACB",
"'	c #65489F",
")	c #8C69CB",
"!	c #5E3B9B",
"~	c #5D3A9A",
"{	c #7B5CB6",
"]	c #795AB4",
"^	c #7C5CB7",
"/	c #C68FEE",
"(	c #C891EF",
"_	c #FCC9E6",
":	c #A779F0",
"<	c #A577F0",
"[	c #A577EF",
"}	c #A578F0",
"|	c #8F6CCC",
"1	c #906CCC",
"2	c #906DCD",
"3	c #A87AF0",
"4	c #603D9E",
"5	c #5F3C9C",
"6	c #5F3C9B",
"7	c #5E3B9A",
"8	c #7A5BB6",
"9	c #7B5CB7",
"0	c #7B5BB6",
"a	c #6649A1",
"b	c #6548A0",
"c	c #6749A2",
"d	c #A778F1",
"e	c #A477EF",
"f	c #C78FF0",
"g	c #8E6BCC",
"h	c #8E6BCD",
"i	c #8E6ACC",
"j	c #C68FEF",
"k	c #6648A0",
"l	c #8F6BCD",
"m	c #AA7CF1",
"n	c #8E6ACD",
"o	c #916DCD",
"p	c #C890EF",
"q	c #623E9E",
"r	c #603D9C",
"s	c #7D5DB7",
"t	c #FDC9E6",
"    ....++++........    ...@#$$%&******&=--;>++,'   ....+++)!~~~",
"    ....++++........    ...@#$$%&******&=--;>++,'   ....+++)!~~~",
"    ....++++........    ...@#$$%&******&=--;>++,'   ....+++)!~~~",
"   '...{+>>+{......]'  '...^/##(_&&&&&&_:<<[+)))'  '...{+++)!~~~",
"....,+++};;}+++)'  ']...,++,^@@^|1123==:4555!!!6]...,++++++,'   ",
"....+++>;--;>++,'   ....++++....+++>;--<5~~~~~~7....+++++++,'   ",
"....+++>;--;>++,'   ....++++....+++>;--<5~~~~~~7....+++++++,'   ",
"....+++><}}<+,,)'   ...{+>>+....),,+;--<5~~~~~~!8{{9,++++++)'   ",
"   ',+++9{{0''''   ')+++};;<{...'''a<--<5~~~   b[}}[9.......    ",
"   ',+++....       ',++>;--}{...   b<--<5~~~   b<--}{.......    ",
"   ',+++....       ',++>;--}{...   b<--<5~~~   b<--}{.......    ",
"   ')++,{...       ')))+<}}[0..]   b[}}[5~~~bbbc;dd;9.......'   ",
"    ...{,++)'   ~~~~!!!68{{0'       0{{0   be<<;f$$#g++,........",
"    ....+++,'   ~~~~~~~7....        ....   b<--d$$$#h+++........",
"    ....+++,'   ~~~~~~~7....        ....   b<--d$$$#h+++........",
"   '...{ghhi'   ~~~~~~~!]..]       '....   b[}};###ji,,)........",
"....,++gj##j{..]7~~~            ]...,++)'   0{{9ghhik'''!77!....",
"....+++h#$$#@...7~~~            ....+++,'   ....+++,'   ~~~7....",
"....+++h#$$#@...7~~~            ....+++,'   ....+++,'   ~~~7....",
"...{+>>l(%%(^...!77!           '0{{9ghhik'''....,++)'   ~~~!]...",
"++++};;3_&&_|++,...]    ]......0[}};###ji,,)........!~~~        ",
"+++>;--=&**&1+++....    .......{}--d$$$#h+++........7~~~        ",
"+++>;--=&**&1+++....    .......{}--d$$$#h+++........7~~~        ",
"hhhl3==m&**&2>>+9{{0'  '.......0[}};###ji,,).......]!~~~    ''''",
"###(_&&&***&3;;;}}}[0.......'  '0{{9ghhik'''....'          '),,,",
"$$$%&******&=------}{.......    ....+++,'   ....           ',+++",
"$$$%&******&=------}{.......    ....+++,'   ....           ',+++",
"###(_&&&&&&_:<<<<<<[{...{{{0'  '...{,++)'  '....'       '''k),,,",
"@@@^|1123==:cbbbbbbk...{[}}[0...,++,{.......,++,...]   '),,)k'''",
"....+++>;--<b       ...{}--}{...++++........++++....   ',++,'   ",
"....+++>;--<b       ...{}--}{...++++........++++....   ',++,'   ",
"....,+++;--<b   ''''0{{^;dd;9..{,++,........,++,...]'''k+>>+'   ",
"   '...9}--<b  '),,+<}};f$$#g++,{...'      '....'  '),,+};;[b   ",
"    ...{}--<b  ',++>;--d$$$#h+++....        ....   ',++>;--<b   ",
"    ...{}--<b  ',++>;--d$$$#h+++....        ....   ',++>;--<b   ",
"   '...{[}}[a''k+>>n<}};###ji,,)...]       '....'  '+>>n;dd;a'''",
"........{{{9),,+};;<^{{9ghhik'''!777~~~!]...,++,...0<;;;f$$#i,,,",
"............+++>;--}{...+++,'   ~~~~~~~7....++++...{}--d$$$#h+++",
"............+++>;--}{...+++,'   ~~~~~~~7....++++...{}--d$$$#h+++",
"...........{+>>n;dd;9..{,++)'   ~~~~777!...{+>>+{..9[}};###ji,,,",
"........,+++};;;f$$#g++,{...!~~~    ]...,+++};;}+++,9{{9ghhik'''",
"........+++>;--d$$$#h+++....7~~~    ....+++>;--;>+++....+++,'   ",
"........+++>;--d$$$#h+++....7~~~    ....+++>;--;>+++....+++,'   ",
".......{+>>n;--d$$$#l>>+{...!~~~   '...{+>>n;dd;n>>+{..{,++)'   ",
"....,+++};;;---d$$$$;;;}+++)'   ]...,+++};;;f$$f;;;}+++,{...    ",
"....+++>;------d$$$$d--;>++,'   ....+++>;--d$$$$d--;>+++....    ",
"....+++>;------d$$$$d--;>++,'   ....+++>;--d$$$$d--;>+++....    ",
"....+>>n;ddd====%%%%d--;n>>+'  ']...),,+<}};f$$f;<<[+,,)9{{0'   ",
"   k[;;;f$$%_&&&&&&_=---;;;<0..]'   ''''0{{^;dd;4555'''a[}}[0...",
"   b<--d$$$%&******&=------}{...        ...{}--<5~~~   b<--}{...",
"   b<--d$$$%&******&=------}{...        ...{}--<5~~~   b<--}{...",
"   b[}};###(_&&&&&&_:<<<<<<[0..]       '...{[}}[5~~~   k;dd;9...",
"    0{{9ghhh111o(%%pq555bbbb    ~~~!].......{{{0    ]..{#$$#g+++",
"    ....+++++++h#$$#r~~~        ~~~7............    ...@#$$#h+++",
"    ....+++++++h#$$#r~~~        ~~~7............    ...@#$$#h+++",
"   ']...,++++++h#$$jr~~~        !77!{@@@.......]'  '{@@s(%%(l>>>",
"...]'  '...{+++>;dd;b   ]..]    ]..{/##/@...'  ']..{/##(t&&_3;;;",
"....    ....+++>;--<b   ....    ...@#$$#@...    ...@#$$%&**&=---",
"....    ....+++>;--<b   ....    ...@#$$#@...    ...@#$$%&**&=---",
"...]    ]...,+++};;[k  '....'  '{@@s(%%(^...'  ']..{/##(t&&_:<<<",
"777!       '...{+>>+...........{/##(t&&_|++,...]!77!{@@s(%%pq555",
"~~~~        ....++++...........@#$$%&**&1+++....7~~7...@#$$#r~~~",
"~~~~        ....++++...........@#$$%&**&1+++....7~~7...@#$$#r~~~",
"~~~~        ....++++...........@#$$%&**&1+++....7~~7...@#$$#r~~~"};
