/* XPM */
static char * lava_xpm[] = {
"64 64 145 2",
"  	c #888888",
". 	c #A8A8A8",
"+ 	c #AEAEAE",
"@ 	c #818181",
"# 	c #767676",
"$ 	c #929292",
"% 	c #7D7D7D",
"& 	c #999999",
"* 	c #C3C3C3",
"= 	c #A1A1A1",
"- 	c #9B9B9B",
"; 	c #A0A0A0",
"> 	c #939393",
", 	c #9D9D9D",
"' 	c #8B8B8B",
") 	c #797979",
"! 	c #A3A3A3",
"~ 	c #C0C0C0",
"{ 	c #7B7B7B",
"] 	c #B3B3B3",
"^ 	c #ABABAB",
"/ 	c #949494",
"( 	c #7E7E7E",
"_ 	c #959595",
": 	c #878787",
"< 	c #A9A9A9",
"[ 	c #909090",
"} 	c #9E9E9E",
"| 	c #858585",
"1 	c #969696",
"2 	c #898989",
"3 	c #A4A4A4",
"4 	c #989898",
"5 	c #8E8E8E",
"6 	c #7C7C7C",
"7 	c #848484",
"8 	c #BFBFBF",
"9 	c #A7A7A7",
"0 	c #707070",
"a 	c #8D8D8D",
"b 	c #868686",
"c 	c #8F8F8F",
"d 	c #7F7F7F",
"e 	c #8C8C8C",
"f 	c #8A8A8A",
"g 	c #979797",
"h 	c #808080",
"i 	c #828282",
"j 	c #A6A6A6",
"k 	c #777777",
"l 	c #B6B6B6",
"m 	c #ADADAD",
"n 	c #9F9F9F",
"o 	c #919191",
"p 	c #838383",
"q 	c #A2A2A2",
"r 	c #ACACAC",
"s 	c #BABABA",
"t 	c #757575",
"u 	c #787878",
"v 	c #9C9C9C",
"w 	c #A5A5A5",
"x 	c #B5B5B5",
"y 	c #77777D",
"z 	c #FBC52D",
"A 	c #E49721",
"B 	c #AAAAAA",
"C 	c #F2B327",
"D 	c #6C6C72",
"E 	c #69696F",
"F 	c #FFCC2F",
"G 	c #818287",
"H 	c #97979C",
"I 	c #76767C",
"J 	c #67676C",
"K 	c #8F8F95",
"L 	c #7A7A7A",
"M 	c #737378",
"N 	c #5E5E66",
"O 	c #818189",
"P 	c #A1A1A7",
"Q 	c #7C7C81",
"R 	c #7D7E86",
"S 	c #65656B",
"T 	c #878080",
"U 	c #AC4F14",
"V 	c #54545D",
"W 	c #7A7A80",
"X 	c #C05B16",
"Y 	c #F8BF2B",
"Z 	c #FECB2E",
"` 	c #6E6263",
" .	c #A24912",
"..	c #686060",
"+.	c #7D7E83",
"@.	c #7F7F85",
"#.	c #867A7B",
"$.	c #75757B",
"%.	c #6D6D73",
"&.	c #7D7576",
"*.	c #E7711C",
"=.	c #756D6E",
"-.	c #706969",
";.	c #E7931C",
">.	c #B7B7B7",
",.	c #71696A",
"'.	c #766869",
").	c #827A7A",
"!.	c #8D8585",
"~.	c #6A5E5F",
"{.	c #E7811C",
"].	c #746D6D",
"^.	c #8B8484",
"/.	c #877B7B",
"(.	c #645656",
"_.	c #E7841C",
":.	c #786D6D",
"<.	c #787171",
"[.	c #E77A1C",
"}.	c #726767",
"|.	c #E7771C",
"1.	c #E77B1C",
"2.	c #7B7373",
"3.	c #E7791C",
"4.	c #E7751C",
"5.	c #E7881C",
"6.	c #E7761C",
"7.	c #645657",
"8.	c #615556",
"9.	c #C06716",
"0.	c #827677",
"a.	c #655A5A",
"b.	c #AC5A14",
"c.	c #7A7272",
"d.	c #C36D17",
"e.	c #A25312",
"f.	c #776B6C",
"g.	c #E7741C",
"h.	c #928B8B",
"i.	c #C36417",
"j.	c #C35C17",
"k.	c #C36517",
"l.	c #C36117",
"m.	c #C35E17",
"n.	c #C35F17",
"  . + @ . # $ % & @ * = . - ;   . + @ . # $ % & @ * = > . - ; . + @ . # $ % & @ * = > . - ;   . + . # $ % & @ * = > . - ;   . + ",
", ' ) ! = ~ { ] ^ / > ( _ : < , ' ) ! = ~ { ] ^ / > ( _ _ : < ' ) ! = ~ { ] ^ / > ( _ _ : < , ' ) = ~ { ] ^ / > ( _ _ : < , ' ) ",
"[   } | 1   2 3 4 / > 5 6 < 7 [   } | 1   2 3 4 / > 5 8 6 < 7   } | 1   2 3 4 / > 5 8 6 < 7 [   } 1   2 3 4 / > 5 8 6 < 7 [   } ",
"9 0 a / * > b b c d e } f : 2 9 0 a / * > b b c d e } 1 f : 2 0 a / * > b b c d e } 1 f : 2 9 0 a * > b b c d e } 1 f : 2 9 0 a ",
"e : ' _ e ; g & h & i d j > * e : ' _ e ; g & h & i d < j > * : ' _ e ; g & h & i d < j > * e : ' e ; g & h & i d < j > * e : ' ",
"k h l ! a % 7 2   [ [ / . m : k h l ! a % 7 2   [ [ / n . m : h l ! a % 7 2   [ [ / n . m : k h l a % 7 2   [ [ / n . m : k h l ",
"' 9 % # | f g o & % $ d a g c ' 9 % # | f g o & % $ d p a g c 9 % # | f g o & % $ d p a g c ' 9 % | f g o & % $ d p a g c ' 9 % ",
"(   a q p m p r +   r s h 9 ^ (   a q p m p r +   r s t h 9 ^   a q p m p r +   r s t h 9 ^ (   a p m p r +   r s t h 9 ^ (   a ",
"  5 / & 4 u j @ 1 _ - :   p u   5 / & 4 u j @ 1 _ - : _   p u 5 / & 4 u j @ 1 _ - : _   p u   5 / 4 u j @ 1 _ - : _   p u   5 / ",
"9 g c ( v w [ $ p f d 7 x r o 9 g c ( v w [ $ p f d 7 : x r o g c ( v w [ $ p f d 7 : x r o 9 g y v w [ $ p f d 7 : x r o 9 g c ",
"; d < c : , ' [ 6 3 7 g : @ c ; d < c : , ' [ 6 3 7 g m : @ c d < c : , ' [ 6 3 7 g z A @ c ; d < : , ' [ A A 7 g m : @ c ; d < ",
"> } ( 9 - l B r @ m v ] i $ | > } ( 9 - l B r @ m v ] B i $ | } ( 9 - l B r @ m v ] C D $ | > } E - l B A F F G ] B i $ | > } ( ",
"  g c - } g w i l 5 > ~ 9 p c   g c - } g w i l 5 > ~ ) 9 p c g c - } g w i l 5 > ~ ) 9 p y A A y } g w D H I > ~ ) 9 p c   g c ",
"d % f 7 m b ! g 7 $ 2 g e { ] d % f 7 m b ! g 7 $ 2 g $ e { ] % f 7 m b ! g 7 $ 2 g $ e J F A F A K b ! g 7 $ 2 g $ e { ] d % f ",
"w ) g s g @ f & o | L f f % n w ) g s g @ f & o | L f o f % n ) g s g @ f & o | L f o M N A F F F A @ f & o | L f o f % n w ) g ",
"  . + @ . # $ % & @ * = . - ;   . + @ . # $ % & @ * = > . - ; . + @ . # $ % & @ * = > . - A F F O . # $ % & F P = > . - ;   . + ",
", ' ) ! = ~ { ] ^ / > ( _ : < , ' ) ! = ~ { ] ^ / > ( _ _ : < ' ) ! = ~ { ] ^ / > E Q _ : R A A S = ~ { ] ^ F A ( _ _ : < , ' ) ",
"[   } | 1   2 3 4 / > 5 6 < 7 [   } | 1   2 3 4 / > 5 8 6 < 7   T | 1   2 3 4 / C z A 6 < 7 A A } 1   2 3 4 / > 5 8 6 < 7 [   } ",
"9 0 a / * > b b c d e } f : 2 9 0 a / * > b b c d e } 1 f : 2 0 U / * > b b c d e } A M : 2 9 V a * > b b c d e } 1 f : 2 9 0 a ",
"e : ' _ e ; g & h & i d j > * e : ' _ e ; g & h & i d < j > * : U _ e ; g & h & i d < C W * e : ' e C z A h & i d < j > * e : ' ",
"k h l ! a % 7 2   [ [ / . m : k h l ! X % 7 2   [ [ / n . m : U U ! a % 7 2   [ [ / n . m : k h l Y Z Y A   [ [ / n . m : k h l ",
"' 9 % # | f g o & % $ d a g c ' 9 % # U ` g o & % $ d p a g c  .U ..| f g o & % $ d p a g c ' 9 C A M +.o @.% $ d p a g c ' 9 % ",
"(   a q p m p r +   r s h 9 ^ (   a q U #.p r +   r s t h 9 ^  .X X p m p r +   r s t h 9 ^ (   $.%.m p r +   r s t h 9 ^ (   a ",
"  5 / & 4 u j @ 1 _ - :   p u   5 / & U X j @ 1 _ - : _   p u  .U X 4 u j @ 1 _ - : _   p u   5 / 4 u j @ 1 _ - : _   p u   5 / ",
"9 g c ( v w [ $ p f d 7 x r o 9 g c ( U X [ $ p f d 7 : x r &.U *.U v w [ $ p f d 7 : x r o 9 g c v w [ $ p f d 7 : x r o 9 g c ",
"; d < c : , ' [ 6 3 7 g : @ c ; d < c U *.' [ 6 3 X g X =.-. .*.;.U : , ' [ 6 3 7 g m : @ c ; d < : , ' [ 6 3 7 g m : @ c ; d < ",
"> } ( 9 - l B r @ m v ] i $ | > } ( 9 U *.X r X U U ;. .U U  .;.;.U - l B r @ m v ] B i $ | > } ( - l B r @ m v ] B i $ | > } ( ",
"] c @ g i >.a e 4 B h : $ < 5 ] c @ g U *.X U  .U *.;.*.;.*.*.*.;. .,.>.a e 4 B h : o $ < 5 ] c @ i >.a e 4 B h : o $ < 5 ] c @ ",
"  g c - } g w i l 5 > ~ 9 p c   g c - U *.U *.X *.*.*.*.*.*.*.*.*.U '.).!.i l 5 > ~ ) 9 p c   g c } g w i l 5 > ~ ) 9 p c   g c ",
"d % f 7 m b ! g 7 $ 2 g e { ] d % f ~. .*.X *.*.*.*.{.*.*.*.*.{.*.X U ].^.).7 $ 2 g $ e { ] d % f m b ! g 7 $ 2 g $ e { ] d % f ",
"  . + @ . # $ % & @ * = . - ;   . /.(.X *.*.*.*.*.{.{.*.*.*._.;.*.*.X U U  .:.U X X > . - ;   . + . # $ % & @ * = > . - ;   . + ",
", ' ) ! = ~ { ] ^ / > ( _ : < , <.U X *.*.*.*.*.*.{.[.*.*.*.;.;.*.*.*.*.*.;.X ;.*.X _ _ : < , ' ) = ~ { ] ^ / > ( _ _ : < , ' ) ",
"[   } | 1   2 3 4 / > 5 6 < 7 }.X X *.*.;._.*.{.*.[.|.*.*.*.;.1._.;.{.*.*.{.;.;.X 2.8 6 < 7 [   } 1   2 3 4 / > 5 8 6 < 7 [   } ",
"9 0 a / * > b b c d e } f : 2 U *.*.{.*._.1.*.{.*.|.[.{.*.*.;.1._.;.{.*.3.4.{.{.U T 1 f : 2 9 0 a * > b b c d e } 1 f : 2 9 0 a ",
"e : ' _ e ; g & h & i d j > * X *.*.{.*.1.1.*.{.*.|.{.5.*.[.*.*.*.*.*.*.5.6.3.*.7.d < j > * e : ' e ; g & h & i d < j > * e : ' ",
"k h l ! a % 7 2   [ [ / . m : 8.X {.{.*.1._.*.{.*.[.*.*.*.[.*.*.*.*.*.*.{.{.9.U [ / n . m : k h l a % 7 2   [ [ / n . m : k h l ",
"' 9 % # | f g o & % $ d a g c ' 0.a.X *.*.{.*.*.*.[.*.*.*.{.*.*.{.*.*.*.{.X b.% $ d p a g c ' 9 % | f g o & % $ d p a g c ' 9 % ",
"(   a q p m p r +   r s h 9 ^ (   c.U *.*.{.*.*.*.*.*.*.*.3.*.*.3.*.*.*.{.X X   r s t h 9 ^ (   a p m p r +   r s t h 9 ^ (   a ",
"  5 / & 4 u j @ 1 _ - :   p u   5 / U *.*.*.*.*.*._.|.*.{.3.*.*.{.;.{.*.{.X U _ - : _   p u   5 / 4 u j @ 1 _ - : _   p u   5 / ",
"9 g c ( v w [ $ p f d 7 x r o 9 g c U *.*.*.*.*.*._.|.*.{.*.*.*.4.{.;.*.{.U U f d 7 : x r o 9 g c v w [ $ p f d 7 : x r o 9 g c ",
"; d < c : , ' [ 6 3 7 g : @ c ; d < U *.*.*.*.*.*.;._.*.*.*.*.{.{.4.*.*.{.U 6 3 7 g m : @ c ; d < : , ' [ 6 3 7 g m : @ c ; d < ",
"> } ( 9 - l B r @ m v ] i $ | > } ( U *.{.*.*.{.*.*.*.*.*.*.*.{.*.*.*.*.{.U @ m v ] B i $ | > } ( - l B r @ m v ] B i $ | > } ( ",
"] c @ g i >.a e 4 B h : $ < 5 ] c @ U *.{.{.*.{.*.*.*.*.*.*.*.{.*.*.*.*.{. .4 B h : o $ < 5 ] c @ i >.a e 4 B h : o $ < 5 ] c @ ",
"  g c - } g w i l 5 > ~ 9 p c   g c U *.*.*.*.*.[.*.*.*.*.*.*.*.*.{.d.;.{. .l 5 > ~ ) 9 p c   g c } g w i l 5 > ~ ) 9 p c   g c ",
"d % f 7 m b ! g 7 $ 2 g e { ] d % f U *.*.*.;._.*.*.*.*.*.{.*.*.*.{. .;.{. .7 $ 2 g $ e { ] d % f m b ! g 7 $ 2 g $ e { ] d % f ",
"w ) g s g @ f & o | L f f % n w ) g U *.*.*.;._.|.*.*.{.*.{.*.*.*.3. .;.{.e.o | L f o f % n w ) g g @ f & o | L f o f % n w ) g ",
"  . + @ . # $ % & @ * = . - ;   . + U *.*.*.1._.1.*.*.*.*.{.*.{.*.3. .;.*.e.& @ * = > . - ;   . + . # $ % & @ * = > . - ;   . + ",
", ' ) ! = ~ { ] ^ / > ( _ : < , ' ) U *.*.*.1.1.1.*.*.*.*.{.*.{.*.3. .;.*.e.^ / > ( _ _ : < , ' ) = ~ { ] ^ / > ( _ _ : < , ' ) ",
"[   } | 1   2 3 4 / > 5 6 < 7 [   } U *.*.{.;.1._.{.*.*.*.*.*.*.*.3. .;.*.e.4 / > 5 8 6 < 7 [   } 1   2 3 4 / > 5 8 6 < 7 [   } ",
"e : ' _ e ; g & h & i d j > * e : '  .*.*.{.;.1._.*.*.*.*.*.*.*.*.3. .{.*. .h & i d < j > * e : ' e ; g & h & i d < j > * e : ' ",
"k h l ! a % 7 2   [ [ / . m : k h l  .*.*.*._.;.;.{.*.*.*.*.{.*.*.{. .{.X  .  [ [ / n . m : k h l a % 7 2   [ [ / n . m : k h l ",
"' 9 % # | f g o & % $ d a g c ' 9 %  .*.*.*.|._.;.{.*.*.*.*.5.*.*.3. .f f.&.& % $ d p a g c ' 9 % | f g o & % $ d p a g c ' 9 % ",
"(   a q p m p r +   r s h 9 ^ (   a  .{.*.*.g._.;.*.*.*.;.;.5.*.*.{. .m p h.+   r s t h 9 ^ (   a p m p r +   r s t h 9 ^ (   a ",
"  5 / & 4 u j @ 1 _ - :   p u   5 /  .{.*.*.g._.;.*.*.*._.1.{.*.{.i. .u j @ 1 _ - : _   p u   5 / 4 u j @ 1 _ - : _   p u   5 / ",
"9 g c ( v w [ $ p f d 7 x r o 9 g c  .{.*.*.1._.*.*.*.*._.1.*.*.3.d. .w [ $ p f d 7 : x r o 9 g c v w [ $ p f d 7 : x r o 9 g c ",
"; d < c : , ' [ 6 3 7 g : @ c ; d <  .*.*.*.*.{.*.*.*.*._.1.*.*.3.j. ., ' [ 6 3 7 g m : @ c ; d < : , ' [ 6 3 7 g m : @ c ; d < ",
"> } ( 9 - l B r @ m v ] i $ | > } (  .{.*.*.{.{.*.*.*.*.1._.{.*.*.j. .l B r @ m v ] B i $ | > } ( - l B r @ m v ] B i $ | > } ( ",
"] c @ g i >.a e 4 B h : $ < 5 ] c @  .{.*.*.{.*.*.*.{.*._.;.*.{.*.k. .>.a e 4 B h : o $ < 5 ] c @ i >.a e 4 B h : o $ < 5 ] c @ ",
"  g c - } g w i l 5 > ~ 9 p c   g c  .[.*.*.{.*.*.*.{.{.*.*.*.{.*.l. .g w i l 5 > ~ ) 9 p c   g c } g w i l 5 > ~ ) 9 p c   g c ",
"d % f 7 m b ! g 7 $ 2 g e { ] d % f  .|.*.*.{.{.*.*.*.{.*.*.*.{.{.l. .b ! g 7 $ 2 g $ e { ] d % f m b ! g 7 $ 2 g $ e { ] d % f ",
"w ) g s g @ f & o | L f f % n w ) g  .[.*.*.{.{.*.*.*.{.*.*.*.{.{.m. .@ f & o | L f o f % n w ) g g @ f & o | L f o f % n w ) g ",
"  . + @ . # $ % & @ * = . - ;   . +  .*._._.*.{.*.*.*.{.*.*.*.*.{.n. .# $ % & @ * = > . - ;   . + . # $ % & @ * = > . - ;   . + ",
", ' ) ! = ~ { ] ^ / > ( _ : < , ' )  .*._._.*.*.{.*.*.*.*.*.*.*.{.l. .~ { ] ^ / > ( _ _ : < , ' ) = ~ { ] ^ / > ( _ _ : < , ' ) ",
"[   } | 1   2 3 4 / > 5 6 < 7 [   }  .*._._.{.{.{.*.{.*.*.*.*.{.*.k. .  2 3 4 / > 5 8 6 < 7 [   } 1   2 3 4 / > 5 8 6 < 7 [   } "};
