/* XPM */
static char * skeleton_xpm[] = {
"64 64 216 2",
"  	c #888888",
". 	c #A8A8A8",
"+ 	c #AEAEAE",
"@ 	c #818181",
"# 	c #767676",
"$ 	c #929292",
"% 	c #7D7D7D",
"& 	c #999999",
"* 	c #C3C3C3",
"= 	c #A1A1A1",
"- 	c #9B9B9B",
"; 	c #A0A0A0",
"> 	c #939393",
", 	c #9D9D9D",
"' 	c #8B8B8B",
") 	c #797979",
"! 	c #A3A3A3",
"~ 	c #C0C0C0",
"{ 	c #7B7B7B",
"] 	c #B3B3B3",
"^ 	c #ABABAB",
"/ 	c #949494",
"( 	c #7E7E7E",
"_ 	c #959595",
": 	c #878787",
"< 	c #A9A9A9",
"[ 	c #909090",
"} 	c #9E9E9E",
"| 	c #858585",
"1 	c #969696",
"2 	c #898989",
"3 	c #A4A4A4",
"4 	c #989898",
"5 	c #8E8E8E",
"6 	c #7C7C7C",
"7 	c #848484",
"8 	c #BFBFBF",
"9 	c #A7A7A7",
"0 	c #707070",
"a 	c #8D8D8D",
"b 	c #868686",
"c 	c #8F8F8F",
"d 	c #7F7F7F",
"e 	c #8C8C8C",
"f 	c #8A8A8A",
"g 	c #979797",
"h 	c #808080",
"i 	c #828282",
"j 	c #A6A6A6",
"k 	c #777777",
"l 	c #B6B6B6",
"m 	c #ADADAD",
"n 	c #9F9F9F",
"o 	c #919191",
"p 	c #838383",
"q 	c #A2A2A2",
"r 	c #ACACAC",
"s 	c #BABABA",
"t 	c #757575",
"u 	c #787878",
"v 	c #9C9C9C",
"w 	c #A5A5A5",
"x 	c #B5B5B5",
"y 	c #AAAAAA",
"z 	c #7A7A7A",
"A 	c #6E6E6E",
"B 	c #6C6C6C",
"C 	c #313131",
"D 	c #474747",
"E 	c #525252",
"F 	c #4D4D4D",
"G 	c #4E4E4E",
"H 	c #414141",
"I 	c #424242",
"J 	c #515151",
"K 	c #6A6A6A",
"L 	c #5E5E5E",
"M 	c #565656",
"N 	c #2A2A2A",
"O 	c #413630",
"P 	c #1F1F1F",
"Q 	c #3C3937",
"R 	c #605450",
"S 	c #000000",
"T 	c #3F3733",
"U 	c #282828",
"V 	c #322C2A",
"W 	c #5F5350",
"X 	c #403836",
"Y 	c #4C4240",
"Z 	c #727272",
"` 	c #292929",
" .	c #5A4E4A",
"..	c #3A3230",
"+.	c #3C3532",
"@.	c #413836",
"#.	c #26221F",
"$.	c #3A3231",
"%.	c #292422",
"&.	c #3A3A3A",
"*.	c #524845",
"=.	c #352E2C",
"-.	c #2D2726",
";.	c #282322",
">.	c #262220",
",.	c #2F2A28",
"'.	c #1E1B1A",
").	c #656565",
"!.	c #444444",
"~.	c #534946",
"{.	c #39322F",
"].	c #473E3B",
"^.	c #312A28",
"/.	c #3E3633",
"(.	c #3D3533",
"_.	c #2D2825",
":.	c #2A2522",
"<.	c #FFC562",
"[.	c #ED8E3F",
"}.	c #B7B7B7",
"|.	c #676767",
"1.	c #544A46",
"2.	c #362F2D",
"3.	c #4D4340",
"4.	c #352E2B",
"5.	c #2E2827",
"6.	c #3B3432",
"7.	c #201C1B",
"8.	c #FFCE89",
"9.	c #F8E1DE",
"0.	c #636363",
"a.	c #2E2927",
"b.	c #4B423E",
"c.	c #25201E",
"d.	c #2E2826",
"e.	c #231E1E",
"f.	c #2A2422",
"g.	c #734718",
"h.	c #7A4C1A",
"i.	c #545454",
"j.	c #322B2A",
"k.	c #38312E",
"l.	c #2F2928",
"m.	c #211D1B",
"n.	c #1E1A19",
"o.	c #41280E",
"p.	c #2B2625",
"q.	c #221E1C",
"r.	c #2A2523",
"s.	c #322B29",
"t.	c #905A1E",
"u.	c #616161",
"v.	c #5A4E4B",
"w.	c #524744",
"x.	c #49423E",
"y.	c #362F2E",
"z.	c #3E3634",
"A.	c #535353",
"B.	c #3C3C3C",
"C.	c #574019",
"D.	c #BE7728",
"E.	c #472D0F",
"F.	c #332D2B",
"G.	c #302A28",
"H.	c #2C2625",
"I.	c #8E8D8E",
"J.	c #6B6B6B",
"K.	c #382910",
"L.	c #717171",
"M.	c #3B3332",
"N.	c #352E2D",
"O.	c #312A29",
"P.	c #5B5B5B",
"Q.	c #A56723",
"R.	c #5D5D5D",
"S.	c #6F6F6F",
"T.	c #443B39",
"U.	c #3F3735",
"V.	c #241F1E",
"W.	c #2A2524",
"X.	c #2B2624",
"Y.	c #505050",
"Z.	c #555555",
"`.	c #342E2B",
" +	c #423A38",
".+	c #030303",
"++	c #050505",
"@+	c #2D210D",
"#+	c #FAFAF9",
"$+	c #484848",
"%+	c #4A4A4A",
"&+	c #575757",
"*+	c #4F4F4F",
"=+	c #221E1E",
"-+	c #282221",
";+	c #FBFBFB",
">+	c #3D3D3D",
",+	c #626262",
"'+	c #696969",
")+	c #585858",
"!+	c #454545",
"~+	c #564B48",
"{+	c #181207",
"]+	c #2B2B2B",
"^+	c #2C2C2C",
"/+	c #464646",
"(+	c #363636",
"_+	c #171717",
":+	c #373737",
"<+	c #383838",
"[+	c #3E3E3E",
"}+	c #2F2F2F",
"|+	c #646464",
"1+	c #6D6D6D",
"2+	c #3F3F3F",
"3+	c #686868",
"  . + @ . # $ % & @ * = . - ;   . + @ . # $ % & @ * = > . - ; . + @ . # $ % & @ * = > . - ;   . + . # $ % & @ * = > . - ;   . + ",
", ' ) ! = ~ { ] ^ / > ( _ : < , ' ) ! = ~ { ] ^ / > ( _ _ : < ' ) ! = ~ { ] ^ / > ( _ _ : < , ' ) = ~ { ] ^ / > ( _ _ : < , ' ) ",
"[   } | 1   2 3 4 / > 5 6 < 7 [   } | 1   2 3 4 / > 5 8 6 < 7   } | 1   2 3 4 / > 5 8 6 < 7 [   } 1   2 3 4 / > 5 8 6 < 7 [   } ",
"9 0 a / * > b b c d e } f : 2 9 0 a / * > b b c d e } 1 f : 2 0 a / * > b b c d e } 1 f : 2 9 0 a * > b b c d e } 1 f : 2 9 0 a ",
"e : ' _ e ; g & h & i d j > * e : ' _ e ; g & h & i d < j > * : ' _ e ; g & h & i d < j > * e : ' e ; g & h & i d < j > * e : ' ",
"k h l ! a % 7 2   [ [ / . m : k h l ! a % 7 2   [ [ / n . m : h l ! a % 7 2   [ [ / n . m : k h l a % 7 2   [ [ / n . m : k h l ",
"' 9 % # | f g o & % $ d a g c ' 9 % # | f g o & % $ d p a g c 9 % # | f g o & % $ d p a g c ' 9 % | f g o & % $ d p a g c ' 9 % ",
"(   a q p m p r +   r s h 9 ^ (   a q p m p r +   r s t h 9 ^   a q p m p r +   r s t h 9 ^ (   a p m p r +   r s t h 9 ^ (   a ",
"  5 / & 4 u j @ 1 _ - :   p u   5 / & 4 u j @ 1 _ - : _   p u 5 / & 4 u j @ 1 _ - : _   p u   5 / 4 u j @ 1 _ - : _   p u   5 / ",
"9 g c ( v w [ $ p f d 7 x r o 9 g c ( v w [ $ p f d 7 : x r o g c ( v w [ $ p f d 7 : x r o 9 g c v w [ $ p f d 7 : x r o 9 g c ",
"; d < c : , ' [ 6 3 7 g : @ c ; d < c : , ' [ 6 3 7 g m : @ c d < c : , ' [ 6 3 7 g m : @ c ; d < : , ' [ 6 3 7 g m : @ c ; d < ",
"> } ( 9 - l y r @ m v ] i $ | > } ( 9 - l y r @ m v ] y i $ | } ( 9 - l y r @ m v ] y i $ | > } ( - l y r @ m v ] y i $ | > } ( ",
"  g c - } g w i l 5 > ~ 9 p c   g c - } g w i l 5 > ~ ) 9 p c g c - } g w i l 5 > ~ ) 9 p c   g c } g w i l 5 > ~ ) 9 p c   g c ",
"d % f 7 m b ! g 7 $ 2 g e { ] d % f 7 m b ! g 7 $ 2 g $ e { ] % f 7 m b ! g 7 $ 2 g $ e { ] d % f m b ! g 7 $ 2 g $ e { ] d % f ",
"w ) g s g @ f & o | z f f % n w ) g s g @ f & o | z f o f % n ) g s g @ f & o | z f o f % n w ) g g @ f & o | z f o f % n w ) g ",
"  . + @ . # $ % & @ * = . - ;   . + @ . # $ % & @ * = > . - ; . + @ . # $ % & @ * = > . - ;   . + . # $ % & @ * = > . - ;   . + ",
", ' ) ! = ~ { ] ^ / > ( _ : < , ' ) ! = ~ { ] ^ / > ( _ _ : < ' ) ! = ~ { ] ^ / > ( _ _ : < , ' ) = ~ { ] ^ / > ( _ _ : < , ' ) ",
"[   } | 1   2 3 4 / > 5 6 < 7 [   } | 1   2 3 4 / > 5 8 6 < 7   } | 1   2 3 4 / > 5 8 6 < 7 [   } 1   2 3 4 / > 5 8 6 < 7 [   } ",
"9 0 a / * > b b c d e } f : 2 9 0 a / * > b b c d 0 ( u A B 2 0 a / * > b b c d e } 1 f : 2 9 0 a * > b b c d e } 1 f : 2 9 0 a ",
"e : ' _ e ; g & h & i d j > * e : ' C D E F G H G I J B K L % M ' _ e ; g & h & i d < j > * e : ' e ; g & h & i d < j > * e : ' ",
"k h l ! a % 7 2   [ [ / . m : k h l N O O O O O O O O O O O O O O O O O O 2   [ [ / n . m : k h l a % 7 2   [ [ / n . m : k h l ",
"' 9 % # | f g o & % $ d a g c ' 9 % P O Q Q Q Q Q Q Q Q Q Q Q Q Q Q O O O o & % $ d p a g c ' 9 % | f g o & % $ d p a g c ' 9 % ",
"(   a q p m p r +   r s h 9 ^ (   a N O R S S S S S S S S S S S S S S S T r +   r s t h 9 ^ (   a p m p r +   r s t h 9 ^ (   a ",
"  5 / & 4 u j @ 1 _ - :   p u   5 # U O V W X Y S S S S S S S S S S S S T @ 1 _ - : _   p u   5 / 4 u j @ 1 _ - : _   p u   5 / ",
"9 g c ( v w [ $ p f d 7 x r o 9 g Z ` O  ...+.@.#.$.%.S S S S S S S S S T $ p f d 7 : x r o 9 g c v w [ $ p f d 7 : x r o 9 g c ",
"; d < c : , ' [ 6 3 7 g : @ c ; d : &.O *.$.=.-.;.>.,.'.S S S S S S S S T [ 6 3 7 g m : @ c ; d < : , ' [ 6 3 7 g m : @ c ; d < ",
"> } ( 9 - l y r @ m v ] i $ | > } ).!.O ~.{.].^./.(._.:.S S S S S S S S T r @ m v ] y i <.[.> } ( - l y r @ m v ] y i $ | > } ( ",
"] c @ g i }.a e 4 y h : $ < 5 ] c |.F O 1.2.3.4.+.5.6.7.S S S S S S S S T e 4 y h : o $ 8.9.] c @ i }.a e 4 y h : o $ < 5 ] c @ ",
"  g c - } g w i l 5 > ~ 9 p c   g Z 0.T /.a.b.c.d.6.e.f.S @ @ @ - - @ @ T i l 5 > ~ ) 9 g.h.  g c } g w i l 5 > ~ ) 9 p c   g c ",
"d % f 7 m b ! g 7 $ 2 g e { ] d % A i.T j./.k.l.m.>._.n.S @ 5 5 + 5 5 @ T g 7 $ 2 g $ e g.o.d % f m b ! g 7 $ 2 g $ e { ] d % f ",
"  . + @ . # $ % & @ * = . - ;   . ' |.T >.p.$.:.5.q.r.s.S 5 + + + + + 5 T % & @ * = > . t.o.  . + . # $ % & @ * = > . - ;   . + ",
", ' ) ! = ~ { ] ^ / > ( _ : < , ' u.i T v.w.6.x.l.y.z.l.S + A.B.+ C.B.+ T c ^ / > ( _ _ D.E., ' ) = ~ { ] ^ / > ( _ _ : < , ' ) ",
"[   } | 1   2 3 4 / > 5 6 < 7 [   ( K T F.].6.l.G.6.m.H.S + I.J.J.K.I.+ T p z / > 5 8 6 t.E.K   } 1   2 3 4 / > 5 8 6 < 7 [   } ",
"9 0 a / * > b b c d e } f : 2 9 0 L./ T M.j.-.N.O.:.p.x.S I.B.B.K.C.B.I.O &.P.d e } 1 f Q.o.R.0 a * > b b c d e } 1 f : 2 9 0 a ",
"e : ' _ e ; g & h & i d j > * e : S._ T T.U.U.V...x.W.X.S J.J.+ C.+ J.J.O Y.E & i d < j Q.o.Z.: ' e ; g & h & i d < j > * e : ' ",
"k h l ! a % 7 2   [ [ / . m : k h l ! T p.`.{.6.M.;. +p.S .+++@+#+E $+S O %+&+[ [ / n . t.o.*+h l a % 7 2   [ [ / n . m : k h l ",
"' 9 % # | f g o & % $ d a g c ' 9 % # T =...p.-.p._.=+-+z L.K.;+i.i.+ ' O >+,+% $ d p '+)+!+Z.9 % | f g o & % $ d p a g c ' 9 % ",
"(   a q p m p r +   r s h 9 ^ (   a q O 3.Y F.~+d.7.,.7.z {+C.]+^+r m r O /+S.  r s t h 9 L (   a p m p r +   r s t h 9 ^ (   a ",
"  5 / & 4 u j @ 1 _ - :   p u   5 / & O ;.d.+.V S S S S C.K.(+_+:+^+r f O <+u _ - : _   p u   5 / 4 u j @ 1 _ - : _   p u   5 / ",
"9 g c ( v w [ $ p f d 7 x r o 9 g c ( O Q Q Q Q Q Q Q Q Q Q Q Q Q Q O O O [+'+f d 7 : x r o 9 g c v w [ $ p f d 7 : x r o 9 g c ",
"; d < c : , ' [ 6 3 7 g : @ c ; d < c O O O O O O O O O O O O O O O O O O }+0.3 7 g m : @ c ; d < : , ' [ 6 3 7 g m : @ c ; d < ",
"> } ( 9 - l y r @ m v ] i $ | > } ( 9 - $   A E S.|+Z 1+I B.!.).J !.2+%+!+A @ m v ] y i $ | > } ( - l y r @ m v ] y i $ | > } ( ",
"] c @ g i }.a e 4 y h : $ < 5 ] c @ g i }.a e 4 y h : o $ : Z 3+|.) 3+$ L.e 4 y h : o $ < 5 ] c @ i }.a e 4 y h : o $ < 5 ] c @ ",
"  g c - } g w i l 5 > ~ 9 p c   g c - } g w i l 5 > ~ ) 9 p c g c - } g w i l 5 > ~ ) 9 p c   g c } g w i l 5 > ~ ) 9 p c   g c ",
"d % f 7 m b ! g 7 $ 2 g e { ] d % f 7 m b ! g 7 $ 2 g $ e { ] % f 7 m b ! g 7 $ 2 g $ e { ] d % f m b ! g 7 $ 2 g $ e { ] d % f ",
"w ) g s g @ f & o | z f f % n w ) g s g @ f & o | z f o f % n ) g s g @ f & o | z f o f % n w ) g g @ f & o | z f o f % n w ) g ",
"  . + @ . # $ % & @ * = . - ;   . + @ . # $ % & @ * = > . - ; . + @ . # $ % & @ * = > . - ;   . + . # $ % & @ * = > . - ;   . + ",
", ' ) ! = ~ { ] ^ / > ( _ : < , ' ) ! = ~ { ] ^ / > ( _ _ : < ' ) ! = ~ { ] ^ / > ( _ _ : < , ' ) = ~ { ] ^ / > ( _ _ : < , ' ) ",
"[   } | 1   2 3 4 / > 5 6 < 7 [   } | 1   2 3 4 / > 5 8 6 < 7   } | 1   2 3 4 / > 5 8 6 < 7 [   } 1   2 3 4 / > 5 8 6 < 7 [   } ",
"e : ' _ e ; g & h & i d j > * e : ' _ e ; g & h & i d < j > * : ' _ e ; g & h & i d < j > * e : ' e ; g & h & i d < j > * e : ' ",
"k h l ! a % 7 2   [ [ / . m : k h l ! a % 7 2   [ [ / n . m : h l ! a % 7 2   [ [ / n . m : k h l a % 7 2   [ [ / n . m : k h l ",
"' 9 % # | f g o & % $ d a g c ' 9 % # | f g o & % $ d p a g c 9 % # | f g o & % $ d p a g c ' 9 % | f g o & % $ d p a g c ' 9 % ",
"(   a q p m p r +   r s h 9 ^ (   a q p m p r +   r s t h 9 ^   a q p m p r +   r s t h 9 ^ (   a p m p r +   r s t h 9 ^ (   a ",
"  5 / & 4 u j @ 1 _ - :   p u   5 / & 4 u j @ 1 _ - : _   p u 5 / & 4 u j @ 1 _ - : _   p u   5 / 4 u j @ 1 _ - : _   p u   5 / ",
"9 g c ( v w [ $ p f d 7 x r o 9 g c ( v w [ $ p f d 7 : x r o g c ( v w [ $ p f d 7 : x r o 9 g c v w [ $ p f d 7 : x r o 9 g c ",
"; d < c : , ' [ 6 3 7 g : @ c ; d < c : , ' [ 6 3 7 g m : @ c d < c : , ' [ 6 3 7 g m : @ c ; d < : , ' [ 6 3 7 g m : @ c ; d < ",
"> } ( 9 - l y r @ m v ] i $ | > } ( 9 - l y r @ m v ] y i $ | } ( 9 - l y r @ m v ] y i $ | > } ( - l y r @ m v ] y i $ | > } ( ",
"] c @ g i }.a e 4 y h : $ < 5 ] c @ g i }.a e 4 y h : o $ < 5 c @ g i }.a e 4 y h : o $ < 5 ] c @ i }.a e 4 y h : o $ < 5 ] c @ ",
"  g c - } g w i l 5 > ~ 9 p c   g c - } g w i l 5 > ~ ) 9 p c g c - } g w i l 5 > ~ ) 9 p c   g c } g w i l 5 > ~ ) 9 p c   g c ",
"d % f 7 m b ! g 7 $ 2 g e { ] d % f 7 m b ! g 7 $ 2 g $ e { ] % f 7 m b ! g 7 $ 2 g $ e { ] d % f m b ! g 7 $ 2 g $ e { ] d % f ",
"w ) g s g @ f & o | z f f % n w ) g s g @ f & o | z f o f % n ) g s g @ f & o | z f o f % n w ) g g @ f & o | z f o f % n w ) g ",
"  . + @ . # $ % & @ * = . - ;   . + @ . # $ % & @ * = > . - ; . + @ . # $ % & @ * = > . - ;   . + . # $ % & @ * = > . - ;   . + ",
", ' ) ! = ~ { ] ^ / > ( _ : < , ' ) ! = ~ { ] ^ / > ( _ _ : < ' ) ! = ~ { ] ^ / > ( _ _ : < , ' ) = ~ { ] ^ / > ( _ _ : < , ' ) ",
"[   } | 1   2 3 4 / > 5 6 < 7 [   } | 1   2 3 4 / > 5 8 6 < 7   } | 1   2 3 4 / > 5 8 6 < 7 [   } 1   2 3 4 / > 5 8 6 < 7 [   } "};
